<?xml version="1.0" standalone="no"?>
<!DOCTYPE svg PUBLIC "-//W3C//DTD SVG 1.1//EN" "http://www.w3.org/Graphics/SVG/1.1/DTD/svg11.dtd" >
<svg xmlns="http://www.w3.org/2000/svg">
<metadata></metadata>
<defs>
<font id="Folks-HeavyRegular" horiz-adv-x="0" >
<font-face units-per-em="2048" ascent="1638" descent="-410" />
<missing-glyph horiz-adv-x="593" />
<glyph />
<glyph horiz-adv-x="2048" />
<glyph horiz-adv-x="800" d="M2 1448q0 -128 166 -200q132 -58 278 -58q156 0 292 58q173 72 173 210q0 59 -34.5 102.5t-98.5 43.5q-30 0 -43 -9q-136 -100 -264 -100q-117 0 -281 91q-32 18 -60 18t-52.5 -14.5t-41.5 -37.5q-34 -47 -34 -104z" />
<glyph />
<glyph horiz-adv-x="616" d="M49 1410q0 -52 23.5 -94t60.5 -70q77 -60 182 -60q100 0 179 62q81 63 81 163q0 98 -83 164q-75 59 -181 59q-103 0 -178 -59q-84 -66 -84 -165zM254 1409q0 25 18.5 41t40.5 16q23 0 39.5 -17t16.5 -40t-16.5 -39t-41.5 -16t-41 15t-16 40z" />
<glyph unicode="&#xa;" horiz-adv-x="942" d="M59 426q28 -38 91 -98l116 108q91 -67 207 -67t207 67l111 -110q78 78 92 96l-109 106q70 95 70 215t-68 211l107 101q-40 68 -92 100l-111 -115q-90 66 -205 66t-211 -68l-112 115q-50 -43 -89 -96l105 -105q-59 -96 -59 -211t59 -209zM236 737q0 99 70 169 q71 71 169 71q100 0 170 -70t70 -170q0 -101 -70 -169q-71 -70 -170 -70q-97 0 -169 70q-70 69 -70 169z" />
<glyph />
<glyph horiz-adv-x="768" d="M-8 1485q0 -108 88 -144l289 -116q47 -21 73 -21q46 0 80 19l281 114q41 16 67.5 54.5t26.5 92.5t-44 97t-103 43t-240 -84q-41 -19 -66 -27q-23 8 -64.5 28t-87.5 38q-120 47 -168 47t-90 -44t-42 -97z" />
<glyph unicode="&#xd;" horiz-adv-x="499" d="M66 4l456 -2v889q0 91 -68 161q-66 68 -159 68q-95 0 -162 -66q-67 -65 -67 -161v-889z" />
<glyph horiz-adv-x="550" d="M-254 86l272 -162l762 1368q20 35 20.5 89.5t-46.5 102.5t-100 48q-105 0 -148 -80z" />
<glyph horiz-adv-x="1288" d="M209 524l258 -256l227 211l129 -131q53 -53 130 -53t128.5 53t51.5 112.5t-18.5 95.5t-46.5 66.5t-59.5 58.5t-58.5 54l133 133q53 53 53.5 130t-51 130.5t-129.5 53.5q-98 0 -204 -123q-29 -33 -56 -60l-133 134q-53 53 -129 53t-129 -54.5t-53 -131.5t53 -130l133 -133 z" />
<glyph horiz-adv-x="935" />
<glyph />
<glyph />
<glyph />
<glyph />
<glyph unicode=" "  horiz-adv-x="593" />
<glyph unicode="&#x09;" horiz-adv-x="593" />
<glyph unicode="&#xa0;" horiz-adv-x="593" />
<glyph unicode="!" horiz-adv-x="583" d="M78 209q0 -101 72 -175q72 -73 178 -73q104 0 177 73t73 177q0 106 -74 176q-76 72 -178 72q-104 0 -176 -73q-72 -74 -72 -177zM98 731q0 -95 68 -161q69 -68 162 -68q92 0 160 68q65 65 65 159v746l-455 2v-746z" />
<glyph unicode="&#x22;" horiz-adv-x="811" d="M59 958h254l86 517h-295zM473 958h254l86 517h-295z" />
<glyph unicode="#" horiz-adv-x="1251" d="M57 481q0 -31 18.5 -49t43.5 -18h198q-4 -25 -17 -82.5t-26 -118.5q-34 -151 -34 -183t19.5 -47.5t47 -15.5t49 21.5t27.5 50.5l82 375h178q-4 -18 -18.5 -76.5t-29.5 -124.5l-27 -121q-13 -55 -13 -71.5t18.5 -34t46 -17.5t52 17.5t33.5 50.5l86 377h200q39 0 63.5 25.5 t24.5 56.5t-18.5 49t-40.5 18l-199 -2l76 352h195q37 0 68.5 22.5t31.5 57.5t-18.5 53.5t-47.5 18.5l-198 -4l90 409h-152l-86 -409h-176l86 409h-147l-86 -409l-197 4q-35 0 -64.5 -23.5t-29.5 -56.5t18.5 -52.5t44.5 -19.5h195l-74 -352h-200q-35 0 -64 -24.5t-29 -55.5z M498 561l73 352h179l-76 -352h-176z" />
<glyph unicode="$" horiz-adv-x="1183" d="M29 983q0 -205 196 -321q130 -76 381 -125l-2 -136q-100 0 -192.5 32t-147.5 53.5t-108 39.5l-117 -403q135 -57 276.5 -99t288.5 -42v-181h74v185q213 0 389 150q182 154 182 368q0 274 -344 394q-163 57 -225 67l2 108q35 -6 67.5 -17.5t65.5 -22.5q81 -27 150 -27 t125.5 57t56.5 141q0 149 -167 226q-123 56 -298 61v184q0 43 -37 43q-16 0 -26.5 -12t-10.5 -29v-188q-225 -22 -391 -147q-188 -143 -188 -359zM496 1049.5q0 13.5 9 20.5t23 12q26 10 43 9.5t37 -4.5l-2 -104q-62 12 -86 32.5t-24 34zM678 403l2 117q8 -4 22.5 -7 t26.5 -7q31 -10 31 -39t-26.5 -41.5t-55.5 -22.5z" />
<glyph unicode="%" horiz-adv-x="1644" d="M68 1133q0 -78 29.5 -145.5t81.5 -117.5q111 -108 270 -108q155 0 264 110q112 114 112 265q0 157 -110 265q-111 109 -266 109q-157 0 -268 -111q-113 -113 -113 -267zM282.5 146.5q0.5 -68.5 52.5 -124t115 -55.5q119 0 181 88l899 1288l-318 209l-895 -1286 q-35 -51 -34.5 -119.5zM381 1135q0 27 20.5 43t44.5 16q25 0 45.5 -14.5t20.5 -42.5q0 -29 -20.5 -44.5t-46.5 -15.5t-45 15.5t-19 42.5zM928 339q0 -77 30.5 -144.5t81.5 -118.5q113 -111 265 -111q153 0 262 109q110 110 110 262q0 154 -108 262q-109 109 -262 109 q-154 0 -266.5 -107t-112.5 -261zM1241 337q0 28 19.5 44t47.5 16t46 -16t18 -44t-21.5 -43t-47.5 -15q-27 0 -44.5 15t-17.5 43z" />
<glyph unicode="&#x26;" horiz-adv-x="1482" d="M47 477q0 -240 193 -379q173 -123 422 -123q111 0 195.5 32t182.5 75q154 -154 220 -154q82 0 144 64q58 59 58 133.5t-26.5 109.5t-71.5 76l238 195l-285 317l-248 -194l-98 98q195 68 267 235q24 56 24 146t-45.5 170t-118.5 129q-142 94 -365 94q-204 0 -358 -95 q-78 -48 -128 -124t-50 -163t24.5 -138t65.5 -104q-104 -66 -172 -168.5t-68 -231.5zM512 483q0 67 53 99l195 -199q-81 -18 -104.5 -18t-48.5 10t-47 29q-48 41 -48 79zM698 1097q0 28 18.5 46t45.5 18t50.5 -18.5t23.5 -41.5t-20 -51t-36 -36q-25 10 -53.5 32.5 t-28.5 50.5z" />
<glyph unicode="'" horiz-adv-x="442" d="M59 958h254l86 517h-295z" />
<glyph unicode="(" horiz-adv-x="573" d="M37 735q0 -175 39 -364q8 -37 18 -91.5t24.5 -115t35 -120.5t48.5 -110q74 -131 183 -131q71 0 132 53.5t61 127.5q0 24 -35 138t-77 274.5t-42 340.5q0 216 47 377q13 39 36 145q41 189 66 240q10 0 -72.5 21.5t-132 35t-80 22.5t-32.5 9q-74 -128 -148 -365 q-71 -232 -71 -487z" />
<glyph unicode=")" horiz-adv-x="573" d="M37 1407q0 -41 21.5 -105.5t46 -145.5t43.5 -163q42 -175 42 -340q0 -238 -47 -379q-12 -41 -35 -145q-41 -179 -67 -240q-2 0 47 -13t109.5 -29.5t110.5 -30.5l50 -13q80 137 150 363q70 229 70 487q0 146 -25.5 284t-43 228t-48.5 179.5t-79 157.5q-59 85 -155 85 q-74 0 -131 -53q-59 -56 -59 -127z" />
<glyph unicode="*" horiz-adv-x="819" d="M27 905l211 -24l94 92q-14 -31 -31.5 -68t-17.5 -82t39.5 -81.5t93.5 -36.5q53 0 94 36.5t41 82t-17.5 81t-31.5 68.5l94 -92l211 24l-125 150l-104 57l110 47l115 150l-203 32l-104 -84q14 29 36.5 64t22.5 65t-13.5 50t-33.5 34q-44 31 -92 31q-82 0 -124 -65 q-13 -21 -13 -50.5t22.5 -64.5t36.5 -64l-105 84l-202 -32l114 -150l111 -47l-104 -57z" />
<glyph unicode="+" horiz-adv-x="1286" d="M203 537h311v-189q0 -69 52 -126.5t130 -57.5q80 0 127 53q55 55 56 131v187q39 0 80.5 -3.5t83.5 0.5q101 8 151.5 58.5t50.5 123.5t-55 128q-70 70 -233 58q-42 -3 -78 -3v188q0 76 -53 129q-56 56 -131 56t-129 -53.5t-54 -129.5v-184h-309v-366z" />
<glyph unicode="," horiz-adv-x="530" d="M-61 -162q0 -88 58 -150.5t133.5 -62.5t131 35t82.5 92l217 481l-401 185l-203 -488q-18 -43 -18 -92z" />
<glyph unicode="-" horiz-adv-x="933" d="M49 606.5q0 -78.5 54.5 -130.5t132.5 -52h696l2 367h-698q-77 0 -132 -53t-55 -131.5z" />
<glyph unicode="." horiz-adv-x="602" d="M16 210q0 -52 20.5 -97t54.5 -79q73 -73 177 -73t176 73q72 74 72 177q0 101 -72 175q-72 73 -176 73q-103 0 -177 -72q-75 -73 -75 -177z" />
<glyph unicode="/" horiz-adv-x="888" d="M14 149q0 -34 15.5 -69t42.5 -60q56 -55 124 -55q135 0 185 115l553 1350l-352 143l-553 -1350q-15 -40 -15 -74z" />
<glyph unicode="0" horiz-adv-x="1288" d="M41 738q0 -97 19.5 -193t60.5 -183q124 -262 405 -354q82 -26 168 -26q166 0 320 96q160 95 250 284q79 167 79 375q0 317 -181 538q-109 133 -301 195q-81 27 -167 27q-162 0 -321 -96q-247 -147 -313 -469q-19 -97 -19 -194zM479 735q0 49 11.5 110.5t35.5 116.5 q59 134 166 134q110 0 168 -130q47 -104 47 -225q0 -130 -32.5 -209t-73.5 -118t-106 -39t-106.5 37t-66 92t-34 118.5t-9.5 112.5z" />
<glyph unicode="1" horiz-adv-x="1286" d="M141 1272q0 -84 61.5 -145.5t145.5 -61.5h129v-1061l473 -2v1249q0 102 -59.5 163t-161.5 61h-383q-86 0 -145.5 -58.5t-59.5 -144.5z" />
<glyph unicode="2" horiz-adv-x="1286" d="M106 1061q0 -91 60 -153q61 -62 151 -62q122 0 211 122q54 77 94 100.5t75 23.5t63 -14.5t28 -40t-24.5 -62.5t-61 -82t-80.5 -93t-84 -90q-131 -138 -211.5 -217t-128.5 -127q-87 -87 -87 -173q0 -138 141 -181q41 -12 84 -12h954v410h-430q262 221 365 455 q39 89 39 190.5t-50.5 185.5t-131.5 139q-161 111 -382 111q-290 0 -479 -187q-115 -113 -115 -243z" />
<glyph unicode="3" horiz-adv-x="1282" d="M109 360.5q0 -90.5 59 -162t146 -120.5t185.5 -73.5t190.5 -24.5t198.5 34.5t193.5 99.5q198 146 198 365q0 121 -59.5 200t-159.5 136q59 51 96 130t37 168t-44 162t-114 120q-138 94 -331 94q-203 0 -427 -116q-65 -34 -139 -73l160 -360q20 8 76.5 31.5t120.5 48.5 q159 61 184 61q78 0 78 -53q0 -16 -12.5 -31.5t-46 -15.5t-83 -9t-86.5 -33q-86 -55 -86 -163v-10q0 -132 95 -171q41 -17 88 -21.5t88 -10.5t67.5 -23.5t26.5 -61.5t-37 -66.5t-85 -22.5t-92 27.5t-85 61.5t-87 62.5t-120 28.5t-134 -59t-60 -149.5z" />
<glyph unicode="4" horiz-adv-x="1286" d="M14 490.5q0 -58.5 20.5 -96.5t53.5 -64q67 -51 166 -51h414v-279l473 2v272q150 0 207 116q18 38 18 87q0 93 -66 149q-61 54 -155 54v438q0 275 -157 348q-60 27 -131.5 27t-110.5 -13.5t-72 -35.5q-48 -33 -119 -129l-496 -701q-45 -65 -45 -123.5zM461 682l209 324 v-324h-209z" />
<glyph unicode="5" horiz-adv-x="1284" d="M92 269q0 -87 61.5 -144t147.5 -90q156 -60 342 -60q404 0 555 324q51 113 51 212t-33.5 179t-93.5 138q-126 122 -311 122q-93 0 -160 -18l27 125h455l81 418h-706q-72 0 -132.5 -48.5t-72.5 -119.5l-96 -545q-2 -8 -2 -17v-18q0 -76 53 -131t131 -55q48 0 102 23 q100 44 149.5 44t92.5 -25.5t43 -82.5q0 -76 -88 -100q-24 -7 -58 -7t-76 12.5t-83 26.5q-114 39 -166 39q-90 0 -149 -55q-64 -60 -64 -147z" />
<glyph unicode="6" horiz-adv-x="1286" d="M100 500q0 -250 183 -390q166 -128 424 -128q245 0 405 146q170 155 170 392q0 161 -94 276q-114 141 -322 162q-36 3 -71 7q-4 0 26.5 38.5t73.5 94.5q122 158 158 213l-404 217q-74 -102 -147.5 -202.5t-128 -178.5t-97.5 -134.5t-80 -132.5q-96 -192 -96 -380z M563 505.5q0 45.5 40 75t84 29.5t83 -28.5t39 -75.5t-40 -78t-72.5 -31t-54 8.5t-38.5 22.5q-41 32 -41 77.5z" />
<glyph unicode="7" horiz-adv-x="1286" d="M92 1067h666l-484 -735q-35 -53 -34.5 -108.5t18.5 -96.5t50 -71q69 -66 150 -66q162 0 232 127l604 1063q25 43 25 90t-18.5 85t-50.5 65q-65 55 -154 55h-1004v-408z" />
<glyph unicode="8" horiz-adv-x="1286" d="M82 465q0 -119 53 -210t140 -151q170 -116 417 -116t417 116q194 133 194 371q0 169 -113 271q-37 34 -86 53q117 113 117 266q0 145 -103 266q-133 162 -416 162q-140 0 -217 -25q-150 -50 -219 -137q-104 -126 -104 -271.5t119 -260.5q-92 -34 -149 -130 q-50 -85 -50 -204zM545 527q0 28 13 52.5t34 40.5q45 37 85 37t66.5 -10t48.5 -27q48 -40 48 -94q0 -53 -48 -92q-45 -37 -100 -37t-88 28t-46 51t-13 51zM592 1037q0 40 31.5 64.5t68.5 24.5t69 -25.5t32 -64.5t-32 -63.5t-68 -24.5t-68.5 24.5t-32.5 64.5z" />
<glyph unicode="9" horiz-adv-x="1288" d="M100 942q0 -208 144 -322q124 -98 346 -116q-124 -130 -283 -352l328 -224q19 19 98.5 93.5t136.5 130.5q129 130 176.5 198t90.5 141.5t75 152.5q70 177 70 316.5t-49 237.5t-132 162q-165 129 -423 129q-248 0 -412 -149q-166 -150 -166 -398zM573 963q0 47 38 78.5 t84 31.5t85 -30.5t39 -77.5t-39 -77t-83 -30t-84 29t-40 76z" />
<glyph unicode=":" horiz-adv-x="585" d="M78 895q0 -103 72 -177q72 -73 176 -73t177 73q72 72 72 177q0 103 -72 175q-73 73 -175 73q-106 0 -178 -73q-72 -74 -72 -175zM80 210q0 -52 20.5 -97t53.5 -79q72 -73 178 -73q102 0 175 73t73 177q0 102 -73 175t-175 73q-104 0 -178 -72q-74 -73 -74 -177z" />
<glyph unicode=";" horiz-adv-x="614" d="M-31 -160q0 -90 57.5 -152.5t134 -62.5t132 36t82.5 91l260 541l-402 184l-245 -547q-18 -43 -19 -90zM113 890q0 -52 20.5 -98.5t54.5 -79.5q72 -73 179 -73q103 0 177 73q72 70 72 177q0 100 -74 178q-73 76 -177 76q-106 0 -179 -74q-73 -75 -73 -179z" />
<glyph unicode="&#x3c;" horiz-adv-x="1001" d="M59 737l863 -477v334l-297 143l297 144v333z" />
<glyph unicode="=" horiz-adv-x="1286" d="M115 305h952q71 0 128 53q54 51 54 128t-52 130.5t-130 53.5h-950zM117 756h950q78 0 130 53t52 131t-53 130t-131 52h-948v-366z" />
<glyph unicode="&#x3e;" horiz-adv-x="1001" d="M59 260l863 477l-863 477v-333l297 -144l-297 -143v-334z" />
<glyph unicode="?" horiz-adv-x="1069" d="M14 1167q0 -115 100 -167q31 -15 75 -15t85 20.5t81 46.5q104 66 177 66q97 0 97 -67q0 -23 -22.5 -34t-56.5 -20.5t-74 -20.5t-74 -34q-78 -52 -78 -166v-80l-2 -159v-29l456 4l-4 201q134 30 220 124q91 100 91 224.5t-48 207.5t-127 137q-157 107 -380 107 q-172 0 -328 -87q-188 -105 -188 -259zM295 213q0 -103 73 -177q71 -73 177 -73q103 0 178 73q74 72 74 177q0 102 -75 177q-73 73 -177 73q-106 0 -177 -73q-73 -74 -73 -177z" />
<glyph unicode="@" horiz-adv-x="1601" d="M100 419q0 -165 53.5 -304.5t149.5 -242.5t232.5 -161.5t302.5 -58.5q0 4 2 28.5t3 51.5l1 28q-278 0 -430 210q-111 153 -140 294q-14 72 -14 175.5t45 221t127 204.5q179 190 447 190q224 0 363 -141q142 -144 142 -363q0 -98 -32 -197q-38 -122 -158 -226 q-31 -28 -71 -28t-59.5 27t-19.5 75.5t10.5 111.5t20.5 124l74 418h-111l-14 -92q-20 59 -72.5 87t-130 28t-150.5 -52.5t-121 -131.5q-97 -160 -97 -345q0 -141 61 -238q74 -118 210 -118t210 153q0 -70 50 -115q49 -42 133.5 -42t162.5 58t131 145.5t81 187.5t28 210.5 t-51.5 225.5t-139.5 198q-186 175 -459 175q-328 0 -550 -220q-103 -102 -161.5 -244t-58.5 -307zM592 311q0 146 60 292q72 179 200 179q66 0 95.5 -43t29.5 -94t-11.5 -123.5t-31.5 -148.5q-51 -186 -107 -242q-37 -37 -90 -37q-145 0 -145 217z" />
<glyph unicode="A" horiz-adv-x="1357" d="M-33 209.5q0 -55.5 19.5 -97.5t53.5 -72q71 -63 169 -63q141 0 209 147q20 42 37 89h497l70 -260l463 115l-426 1161q-43 119 -135.5 188.5t-221.5 69.5t-219 -70.5t-137 -187.5l-352 -901q-27 -63 -27 -118.5zM592 621l110 393l111 -393h-221z" />
<glyph unicode="B" horiz-adv-x="1251" d="M59 -2q94 2 748 2q200 0 339 118q148 126 148 324q0 182 -131 291q-6 4 -17 12.5t-24 15.5q-21 12 -32 23q77 100 77 228t-46 210.5t-119 138.5q-150 114 -361 114h-340q-100 0 -172 -72q-70 -70 -70 -172v-1233zM532 408v137h224q29 0 47 -21.5t18 -49.5t-19.5 -47 t-45.5 -19h-224zM535 938v131h104q29 0 54.5 -18.5t25.5 -46.5q0 -29 -23.5 -47.5t-52.5 -18.5h-108z" />
<glyph unicode="C" horiz-adv-x="1318" d="M41 753q0 -261 168 -472q117 -152 283.5 -223.5t355.5 -71.5q172 0 311 66q76 36 128 94.5t52 142.5q0 82 -63 138q-58 52 -143 52q-60 0 -130 -21q-130 -40 -202 -40t-127.5 25.5t-93.5 69.5q-76 90 -76 232q0 140 94 227q80 75 227 101q27 6 54 6q138 0 305 -86 l127 367q-370 121 -551 121h-23q-12 0 -22 -2q-135 -18 -258 -83t-215 -162t-146.5 -222.5t-54.5 -258.5z" />
<glyph unicode="D" horiz-adv-x="1443" d="M59 240q0 -102 69 -170q72 -70 167 -70h397q162 0 304.5 53t248 149.5t165.5 233.5t60 303q0 92 -20 174q-70 291 -304 433q-212 129 -525 129q-492 0 -562 2v-1237zM532 408v657h95q162 0 264 -86q108 -91 108 -250q0 -144 -105 -236q-97 -85 -249 -85h-113z" />
<glyph unicode="E" horiz-adv-x="1032" d="M59 242q0 -95 70 -167q73 -75 166 -75h756l-2 410h-517v127h269q83 0 149 55q68 57 68 141t-65 144t-154 61h-267v125h324q85 0 144 61t59 146q0 80 -57 143q-57 62 -142 62h-117l-684 -2v-1231z" />
<glyph unicode="F" horiz-adv-x="970" d="M59 0v1235q0 99 69 170q68 70 171 70h723l2 -414h-489v-146h272q87 0 145 -61q58 -62 58 -145t-62 -143q-60 -58 -143 -58h-270v-508h-476z" />
<glyph unicode="G" horiz-adv-x="1554" d="M41 725q0 -172 67.5 -310.5t183.5 -234.5q239 -198 582 -198q309 0 512 182q213 190 213 493q0 113 -50 177.5t-169 64.5h-397q-83 0 -145 -61q-62 -59 -62 -145.5t60.5 -147t148.5 -60.5h123q-29 -47 -116 -75q-61 -19 -137.5 -19t-140 25.5t-109.5 70.5q-99 97 -99 246 q0 150 96 250t248 100q86 0 173 -35.5t161 -72.5l157 387q-207 129 -485 129q-160 0 -306.5 -56.5t-260 -157.5t-181 -240.5t-67.5 -311.5z" />
<glyph unicode="H" horiz-adv-x="1492" d="M59 0v1253q0 98 69 169q68 69 166.5 69t169.5 -71t71 -169v-297h464v516l476 3v-1256q0 -99 -70 -167q-72 -70 -166 -70q-99 0 -168 69q-70 70 -70 168v328h-469v-545h-473z" />
<glyph unicode="I" horiz-adv-x="542" d="M59 -2h473v1253q0 99 -68 167q-71 71 -167 71t-168 -69q-70 -66 -70 -167v-1255zM123 1714q0 -66 46 -113t112 -47t111.5 46.5t45.5 111.5q0 66 -46 114t-111 48q-64 0 -113 -48q-45 -46 -45 -112z" />
<glyph unicode="J" horiz-adv-x="927" d="M14 98q49 -18 102.5 -38.5t107.5 -37.5q130 -42 234.5 -42t198 39.5t155.5 110.5q128 147 128 386v733q0 97 -66 169q-68 73 -167 73q-95 0 -165 -71q-69 -68 -69 -167v-737q0 -131 -70 -131q-49 0 -162.5 41t-138.5 47z" />
<glyph unicode="K" horiz-adv-x="1327" d="M59 0h471v616l457 -553q65 -77 174 -77q98 0 170 68q72 69 72 162t-60 159l-370 411l407 402l-348 317l-500 -544v292q0 101 -68 167q-72 71 -165 71q-101 0 -169 -67q-71 -69 -71 -167v-1257z" />
<glyph unicode="L" horiz-adv-x="972" d="M59 0h965v408h-489v843q0 95 -71 168q-70 72 -167 72t-168 -69q-70 -69 -70 -169v-1253z" />
<glyph unicode="M" horiz-adv-x="1849" d="M20 200.5q0 -34.5 18.5 -76.5t49.5 -74q64 -66 166 -66q88 0 154.5 57t78.5 143l70 588l191 -616h407l188 616l101 -795l461 76l-195 1180q-20 121 -105 191.5t-197.5 70.5t-195 -61.5t-110.5 -161.5l-152 -514l-151 514q-29 100 -110 161.5t-194.5 61.5t-197.5 -71.5 t-104 -190.5l-168 -973q-5 -25 -5 -59.5z" />
<glyph unicode="N" horiz-adv-x="1497" d="M59 0l473 -2v723l537 -651q73 -86 182 -86q103 0 169 68q69 70 69 167v1032q0 99 -70 167q-73 71 -166 71q-97 0 -167 -71q-70 -72 -70 -167v-481l-520 610q-98 113 -203 113q-98 0 -167 -73q-67 -71 -67 -169v-1251z" />
<glyph unicode="O" horiz-adv-x="1585" d="M41 737q0 -160 64.5 -298t172 -240.5t250 -160.5t297.5 -58q156 0 298.5 58t250 160.5t172 241t64.5 297.5q0 160 -64.5 298.5t-172 240.5t-250 160.5t-298.5 58.5t-297 -58.5t-249.5 -160.5t-173 -240.5t-64.5 -298.5zM510 737q0 143 86 242q91 104 229 104 q139 0 231 -105q87 -99 87 -245q0 -136 -89 -239q-90 -103 -231 -103q-136 0 -227 106q-86 101 -86 240z" />
<glyph unicode="P" horiz-adv-x="1239" d="M59 227q0 -98 69 -171q69 -72 167 -72t166 67q77 77 77 231q0 23 -2 47q-4 50 -4 97q68 0 138 -2h20q62 0 136 10q87 12 178.5 53t157.5 109q138 144 138 360q0 231 -168 380q-161 141 -397 141h-676v-1250zM532 836v221h189q47 0 81 -31t34 -78t-34 -79.5t-81 -32.5 h-189z" />
<glyph unicode="Q" horiz-adv-x="1589" d="M41 738q0 -159 64.5 -297t173 -240.5t250 -163t293 -60.5t349.5 76l287 -282l289 295l-268 264q131 175 131 403q0 160 -63.5 299t-171 242.5t-250 162t-299.5 58.5t-299 -58.5t-249.5 -160.5t-172 -240.5t-64.5 -297.5zM510 736q0 69 22.5 132.5t63.5 110.5 q91 104 229 104q139 0 230 -104q86 -99 86 -242q0 -139 -86 -240q-91 -106 -228 -106q-144 0 -231 103q-86 102 -86 242z" />
<glyph unicode="R" horiz-adv-x="1245" d="M59 221q0 -98 70 -168q71 -71 166 -71q96 0 166 68q69 67 69 165v346l431 -633l401 250l-299 412q104 80 162.5 171t58.5 218t-42 218t-114 153q-147 127 -380 127h-689v-1256zM532 889v176h205q35 0 55.5 -28.5t20.5 -62.5t-24.5 -59.5t-59.5 -25.5h-197z" />
<glyph unicode="S" horiz-adv-x="1183" d="M-2 131q163 -96 465 -136q82 -11 143 -11q154 0 288 45t236 164q115 132 115 296q0 253 -245 370q-125 59 -256.5 89.5t-173 41.5t-57 19.5t-15.5 31t26.5 33.5t62 11t85 -12t96.5 -25q131 -38 202 -38t124 57t53 139t-50 137.5t-123 86.5q-136 59 -276.5 59t-253 -31 t-203.5 -92t-148.5 -154.5t-57.5 -213.5t46 -195.5t119 -124.5q117 -78 353 -129q12 -4 47 -10.5t71 -16.5q93 -26 93 -57q0 -36 -48 -55q-34 -15 -84 -15t-121 16.5t-142.5 38t-138 45.5t-115.5 40q-11 -17 -19 -47.5t-16 -57.5t-20.5 -65.5t-24.5 -79.5q-31 -107 -37 -154 z" />
<glyph unicode="T" horiz-adv-x="1083" d="M23 1475l2 -406h321v-850q0 -97 68 -167q67 -68 168 -68q98 0 164 68q69 70 69 163v850h172q82 0 142.5 60.5t60.5 140.5q0 84 -58 147q-56 62 -145 62h-964z" />
<glyph unicode="U" horiz-adv-x="1511" d="M59 662q0 -313 207 -501q195 -177 520 -177q323 0 522 177q208 186 208 501v589q0 102 -70 171q-73 71 -168 71q-92 0 -166 -71q-70 -66 -70 -167v-608q0 -117 -68.5 -188.5t-186.5 -71.5t-186.5 71.5t-68.5 188.5v830h-473v-815z" />
<glyph unicode="V" horiz-adv-x="1294" d="M-86 1327l537 -1188q72 -162 217 -162q92 0 143 42t86 120l459 1030q18 43 18 91.5t-19.5 90.5t-52.5 73q-75 67 -159 67t-143.5 -42t-84.5 -112l-241 -663l-318 821z" />
<glyph unicode="W" horiz-adv-x="1968" d="M-37 1411l313 -1167q31 -117 108 -189.5t193.5 -72.5t196.5 63.5t111 161.5l149 471l150 -469q31 -98 111.5 -161.5t197.5 -63.5t191.5 71.5t107.5 190.5l266 966q6 20 6 54t-19.5 77t-52.5 76q-74 72 -166.5 72t-151 -58.5t-83.5 -142.5l-174 -596l-174 615h-418 l-174 -615l-221 795z" />
<glyph unicode="X" horiz-adv-x="1280" d="M-6 236.5q0 -62.5 18.5 -106.5t51.5 -77q69 -71 151 -71q140 0 227 131l213 315l213 -315q91 -131 213 -131q93 0 164 71q70 70 70 156t-49 151l-338 433l270 309q59 67 59 153q0 95 -69 164q-72 72 -150 72q-128 0 -227 -129l-156 -203l-276 350l-346 -309l348 -407 l-338 -433q-49 -61 -49 -123.5z" />
<glyph unicode="Y" horiz-adv-x="1224" d="M-33 1200l453 -508v-471q0 -98 68 -170q68 -71 169 -71t167 72q69 74 69 169v471l391 424q47 51 47 113.5t-18.5 107.5t-50.5 79q-69 75 -166 75q-110 0 -207 -117l-234 -282l-327 403z" />
<glyph unicode="Z" horiz-adv-x="1329" d="M27 220q0 -64 18 -102t49 -64q66 -54 156 -54h948q86 0 145.5 58.5t59.5 144.5q0 84 -59 144q-59 61 -144 61h-502l574 718q57 71 57 127t-18.5 94.5t-48.5 66.5q-67 61 -154 61h-1055v-408h596l-579 -733q-43 -50 -43 -114z" />
<glyph unicode="[" horiz-adv-x="698" d="M78 -68q0 -66 42 -114.5t111 -48.5h549l-6 405h-225v1126h47q84 0 142 61q57 61 57 144.5t-58.5 142t-144.5 58.5h-361q-70 0 -111.5 -49t-41.5 -115v-1610z" />
<glyph unicode="\" horiz-adv-x="655" d="M59 1475l258 -1475h295l-258 1475h-295z" />
<glyph unicode="]" horiz-adv-x="698" d="M18 1503q0 -81 58 -142q57 -61 141 -61h47v-1126h-211l4 -405h527q70 0 110.5 49t40.5 114v1610q0 66 -41 115t-110 49h-363q-86 0 -144.5 -58.5t-58.5 -144.5z" />
<glyph unicode="^" horiz-adv-x="1099" d="M59 305h336l142 299l143 -299h336l-479 864z" />
<glyph unicode="_" horiz-adv-x="876" d="M59 -397v-88h738v88h-738z" />
<glyph unicode="`" horiz-adv-x="573" d="M76 1350l373 -146q27 -10 53 -10q59 0 103 44t44 95q0 105 -90 142l-373 151z" />
<glyph unicode="a" horiz-adv-x="1255" d="M41 539q0 -239 155 -397q159 -160 392 -160q177 0 260 133q-2 -18 -2 -47t2 -68h395v899q0 98 -52 161.5t-157 63.5q-64 0 -105 -24q-77 -43 -81 -107q-79 133 -260 133q-121 0 -222.5 -48t-173.5 -129q-151 -172 -151 -410zM494 543q0 112 88 165q28 17 65 17 q74 0 116 -53.5t42 -105.5t-11.5 -84.5t-31.5 -58.5q-45 -56 -115 -56q-67 0 -113 55q-40 48 -40 121z" />
<glyph unicode="b" horiz-adv-x="1249" d="M59 217q0 -106 57.5 -171.5t168.5 -65.5q59 0 105 31.5t59 90.5q101 -116 276 -116q232 0 388 176q149 168 149 403q0 232 -151 395q-155 166 -386 166q-106 0 -211 -41v478l-455 2v-1348zM498 550q0 73 43 125t115.5 52t111.5 -54.5t39 -124t-39 -123.5t-114.5 -54 t-115.5 53t-40 126z" />
<glyph unicode="c" horiz-adv-x="1050" d="M41 537.5q0 -113.5 50 -219t136 -180.5q177 -154 437 -154h16q276 0 379 118q43 50 43 129q0 77 -60 135t-121 58t-128.5 -17.5t-135 -17.5t-116.5 43t-49 119t52 115t106.5 39t91 -8.5t75.5 -18.5t77 -20.5t75 -16.5q16 102 34.5 195.5t28.5 195.5q-174 70 -272.5 70 t-176 -8.5t-150.5 -29.5q-162 -48 -253 -155q-61 -72 -100 -165t-39 -206.5z" />
<glyph unicode="d" horiz-adv-x="1255" d="M41 565q0 -234 149 -403q155 -176 385 -176q178 0 279 116q12 -59 58 -90.5t106 -31.5q111 0 168 65.5t57 171.5v1348h-455v-480q-121 41 -224 41t-202.5 -45t-169.5 -121q-151 -164 -151 -395zM494 550q0 71 39.5 124t115.5 53t117 -55.5t41 -125t-43 -122.5t-118 -53 t-113.5 54t-38.5 125z" />
<glyph unicode="e" horiz-adv-x="1206" d="M41 553q0 -267 206 -426q185 -143 464 -143q172 0 309 45l-49 348q-154 -29 -220 -29q-161 0 -233 96h533q88 0 137 33t49 136.5t-52 197.5t-136 162.5t-188.5 107.5t-218.5 39t-224.5 -41t-194.5 -115q-182 -159 -182 -411zM522 666q10 49 43 83.5t85 34.5t82 -34.5 t34 -83.5h-244z" />
<glyph unicode="f" horiz-adv-x="673" d="M-66 915q0 -73 61 -137q63 -67 136 -67h12v-1194h453v1192q88 0 148 53q61 56 61 145.5t-58.5 145t-148.5 55.5l-2 37q0 18 13.5 30.5t29.5 16.5q9 -1 18 -1q67 0 119 53q58 57 58 124t-26 108.5t-67 67.5q-81 53 -190 53h-96q-263 0 -299 -322q-9 -87 -9 -167 q-85 0 -148 -52q-65 -53 -65 -141z" />
<glyph unicode="g" horiz-adv-x="1251" d="M41 537q0 -239 151 -397q157 -163 390 -163q113 0 204 56l2 -19q0 -70 -47 -111.5t-121.5 -41.5t-154.5 18.5t-158 36.5l-49 -381q187 -63 356.5 -63t287.5 53t192 146q147 183 147 507v715q0 111 -51 174t-168 63q-63 0 -112.5 -32.5t-59.5 -98.5q-89 125 -264 125 q-237 0 -394 -177q-151 -172 -151 -410zM494 557q0 70 45 120t116 50q68 0 113 -55q43 -53 43 -123t-45 -119t-119 -49t-113.5 53t-39.5 123z" />
<glyph unicode="h" horiz-adv-x="1214" d="M59 2h457v635q0 49 35 81t82 32t78.5 -34t31.5 -81v-428q0 -92 66 -162t160 -70q97 0 165 66q68 67 68 164v532q0 177 -116.5 282t-282 105t-287.5 -69v327q0 93 -68 162q-64 66 -161 66q-94 0 -160 -66q-68 -68 -68 -160v-1382z" />
<glyph unicode="i" horiz-adv-x="532" d="M66 4l456 -2v889q0 91 -68 161q-66 68 -159 68q-95 0 -162 -66q-67 -65 -67 -161v-889zM123 1407q0 -66 46 -113t112 -47t111.5 46t45.5 112t-46 114t-111 48q-64 0 -113 -49q-45 -45 -45 -111z" />
<glyph unicode="j" horiz-adv-x="530" d="M68 -307q0 -92 65 -159q67 -69 158 -69q95 0 163 66q68 67 68 162v1368l-454 2v-1370zM123 1407q0 -66 46 -113t112 -47t111.5 46t45.5 112t-46 114t-111 48q-64 0 -113 -49q-45 -45 -45 -111z" />
<glyph unicode="k" horiz-adv-x="1089" d="M59 2l453 -2v424l332 -473l368 260l-325 395q31 31 64.5 63.5t62.5 68.5q69 84 69 165q0 94 -65 153q-67 62 -158 62q-111 0 -186 -92l-162 -209v565q0 91 -68 160q-64 66 -159 66q-92 0 -160 -68q-66 -66 -66 -158v-1380z" />
<glyph unicode="l" horiz-adv-x="528" d="M59 0l455 2v1376q0 90 -66 159q-65 69 -157 69q-96 0 -163 -63q-69 -65 -69 -161v-1382z" />
<glyph unicode="m" horiz-adv-x="1832" d="M59 0h451v635q0 45 32.5 71.5t73.5 26.5t69 -30.5t28 -69.5v-633l450 -2v631q0 41 30 69.5t71 28.5t70.5 -29.5t29.5 -70.5v-418q0 -95 68 -162q67 -65 163 -65q93 0 160 67q66 66 66 160v530q0 169 -125 278q-121 105 -302.5 105t-334.5 -118q-136 126 -324 126 q-82 0 -158.5 -32.5t-123.5 -102.5q-10 63 -57.5 95t-108.5 32q-111 0 -169.5 -59t-58.5 -170v-893z" />
<glyph unicode="n" horiz-adv-x="1212" d="M59 2h455v633q0 47 34 81t81 34t80.5 -34t33.5 -81v-426q0 -94 68 -162q65 -65 164 -65q95 0 159 68q68 71 68 161v524q0 178 -140 288q-128 101 -317.5 101t-285.5 -139q-14 63 -63.5 102t-105.5 39t-97 -19.5t-71 -50.5q-63 -67 -63 -163v-891z" />
<glyph unicode="o" horiz-adv-x="1230" d="M41 547q0 -245 182 -410q177 -160 424 -160q249 0 425 163q181 168 181 413q0 246 -181 413q-174 160 -425 160q-252 0 -427 -164q-179 -167 -179 -415zM487 549q0 71 43 125q46 57 117 57t117 -57q43 -54 43 -126.5t-39 -131t-121 -58.5q-72 0 -119 60q-41 53 -41 131z " />
<glyph unicode="p" horiz-adv-x="1251" d="M59 -485h455v512q104 -41 216 -41t211 44t170 120q151 160 151 395q0 234 -149 404q-155 177 -386 177q-175 0 -278 -118q-12 59 -59.5 90.5t-106.5 31.5q-113 0 -168.5 -65.5t-55.5 -171.5v-1378zM498 541.5q0 52.5 10 85t30 58.5q42 56 116.5 56t113.5 -56t39 -126 t-40 -123t-113 -53t-114.5 53t-41.5 105.5z" />
<glyph unicode="q" horiz-adv-x="1249" d="M41 545q0 -231 151 -395q153 -166 383 -166q83 0 140 16t73 27v-516l455 -3v1385q0 106 -57.5 171.5t-167.5 65.5q-59 0 -105.5 -31.5t-58.5 -90.5q-103 118 -281 118q-229 0 -383 -177q-149 -171 -149 -404zM494 560q0 71 39.5 125t113.5 54t117 -53t43 -123t-41 -125 t-117 -55t-115.5 53t-39.5 124z" />
<glyph unicode="r" horiz-adv-x="774" d="M59 -2h453v424q0 45 2 94t40 89t101.5 60.5t123 45t101.5 66.5t42 130t-62 147q-64 60 -142.5 60t-135 -41t-84.5 -106q0 72 -60 115q-50 38 -115 38t-109 -16.5t-79 -45.5q-76 -65 -76 -165v-895z" />
<glyph unicode="s" horiz-adv-x="974" d="M49 86q117 -41 237 -73.5t222 -32.5t189 21.5t158 67.5q161 104 161 281q0 160 -136 253q-59 40 -127.5 64.5t-127 43t-97.5 34t-39 35.5q0 6 17 23q14 6 41 6t62.5 -8t72.5 -19q93 -26 153 -26t106 43t46 109.5t-49 108.5t-118 65q-123 42 -234 42t-199 -20.5 t-161 -65.5q-171 -104 -171 -276q0 -155 135 -245q77 -51 250 -93q58 -14 96.5 -28.5t38.5 -40.5t-24.5 -27.5t-42.5 -1.5q-57 0 -381 96z" />
<glyph unicode="t" horiz-adv-x="704" d="M-49 921q0 -46 18.5 -81t48.5 -60q59 -49 150 -49v-731l457 -2v729q91 0 153 49q68 52 68 145t-65.5 140t-153.5 47v92q0 97 -66 165q-67 69 -164 69q-95 0 -161 -68q-66 -67 -66 -162v-96q-146 0 -200 -106q-19 -35 -19 -81z" />
<glyph unicode="u" horiz-adv-x="1208" d="M59 498q0 -521 568.5 -521t568.5 521v395q0 94 -68 161q-65 66 -161 66q-95 0 -162 -68q-68 -70 -68 -163v-389q0 -51 -27.5 -88t-82.5 -37t-83 37t-28 88v596l-457 2v-600z" />
<glyph unicode="v" horiz-adv-x="1026" d="M-49 924l377 -774q35 -74 86 -118t134 -44t133 49t83 113l319 634q29 65 29 110.5t-18.5 86.5t-49.5 71q-67 68 -149 68t-145.5 -39t-85.5 -110l-117 -365l-217 504z" />
<glyph unicode="w" horiz-adv-x="1660" d="M-27 942l340 -795q29 -68 82.5 -110.5t130 -42.5t132 42t83.5 109l119 291l119 -291q29 -70 85 -110.5t133 -40.5q134 0 212 153l313 635q27 51 27 106.5t-17.5 97.5t-47.5 73q-64 65 -148 65t-144.5 -38.5t-82.5 -104.5l-119 -336l-137 381h-383l-138 -381l-186 496z " />
<glyph unicode="x" horiz-adv-x="1124" d="M-12 217q0 -90 68 -161q67 -72 159 -72q112 0 193 100l194 242l193 -242q81 -100 190 -100q91 0 160 70q67 69 67 163q0 101 -71 160l-246 198l188 146q76 57 76 162.5t-63.5 172t-169 66.5t-172.5 -90l-152 -205l-293 314l-305 -291l303 -275l-246 -198 q-73 -60 -73 -160z" />
<glyph unicode="y" horiz-adv-x="1017" d="M-45 924l354 -813l-157 -342q-21 -44 -21 -95q0 -48 19 -84q18 -36 48 -64q64 -58 150 -58t136.5 45t80.5 116l504 1170q23 51 23 100t-18.5 90t-50.5 69q-71 64 -162 64t-139 -53t-75 -133l-104 -311l-189 479z" />
<glyph unicode="z" horiz-adv-x="1085" d="M40 79q17 -30 45 -47q50 -32 138 -32h744q80 0 139 60q57 59 57 141t-61 141q-58 57 -139 57h-267l377 449q41 47 41 117.5t-55 106.5t-129 36h-848v-399h356l-375 -443q-41 -46 -41 -101t18 -86z" />
<glyph unicode="{" horiz-adv-x="800" d="M59 737q61 -2 99.5 -45t38.5 -102v-635q0 -96 53 -150.5t149 -54.5h365l2 174l-34 -3q-86 -8 -148 49q-33 30 -33 96v479q0 78 -53.5 131t-128.5 61q76 8 129 61.5t53 131.5v520q0 98 115 98q114 0 114 86q0 37 -25.5 63.5t-62.5 26.5h-293q-98 0 -150 -54t-52 -150v-635 q0 -59 -38.5 -102.5t-99.5 -45.5z" />
<glyph unicode="|" horiz-adv-x="397" d="M59 0h295v1475h-295v-1475z" />
<glyph unicode="}" horiz-adv-x="800" d="M59 -159q0 -38 26 -64.5t62 -26.5h293q98 0 150.5 54.5t52.5 150.5v635q0 59 38 102t99 45q-61 2 -99 45t-38 103v635q0 96 -53 150t-150 54h-364l-2 -174l34 3q85 8 147 -47q34 -31 34 -97v-479q0 -78 53 -131.5t129 -61.5q-76 -8 -129 -61t-53 -131v-520 q0 -99 -115 -99q-68 0 -91.5 -23.5t-23.5 -61.5z" />
<glyph unicode="~" horiz-adv-x="1036" d="M59 543h215q0 63 40 105q12 14 34.5 14t66.5 -18.5t96 -39.5q137 -57 215.5 -57t131.5 39t85 98q61 112 61 266h-216q0 -65 -36 -103q-13 -13 -37.5 -13t-69.5 17t-97 39q-141 58 -215.5 58t-127.5 -39t-85 -98q-61 -112 -61 -268z" />
<glyph unicode="&#xa1;" horiz-adv-x="583" d="M78 1227q0 -107 74 -177q75 -71 178 -71q101 0 175 73q73 71 73 177q0 102 -73 175t-177 73q-106 0 -178 -73q-72 -74 -72 -177zM102 -37l455 -2v746q0 94 -67.5 161.5t-161.5 67.5q-91 0 -160 -68q-66 -64 -66 -159v-746z" />
<glyph unicode="&#xa2;" horiz-adv-x="1050" d="M41 551q0 -111 46 -213t124 -180t180.5 -124t212.5 -46v-195q0 -14 10.5 -24.5t25.5 -10.5t26.5 10.5t11.5 26.5v191q55 0 217 30.5t195 36.5l-37 398q-94 -16 -187.5 -34t-189.5 -28v320q59 -10 117.5 -26.5t131 -16.5t122 57t49.5 136t-44 127t-108 76q-111 48 -270 48 v143q0 16 -11.5 25.5t-25.5 9.5q-37 0 -37 -33v-145q-233 -21 -392 -171q-167 -158 -167 -388zM489 560q0 58 31 87.5t82 52.5v-301q-47 23 -80 63t-33 98z" />
<glyph unicode="&#xa3;" horiz-adv-x="1372" d="M29 729q0 -88 61 -143q63 -58 148 -58h92q0 -68 -90 -185q-21 -28 -37 -50v-2q-57 -117 29 -225q50 -65 118 -66h1028l2 406h-596q1 19 23 120h240v406h-295q-18 31 -18.5 61.5t12 48t30.5 27.5q34 18 88.5 18t104 -22.5t96.5 -49t96 -49t95.5 -22.5t79 18.5t56.5 47.5 q50 61 50 137t-49.5 135t-120.5 104q-133 82 -297 103q-92 10 -176.5 10t-187.5 -26.5t-184 -82.5q-177 -124 -177 -358q0 -58 10 -96q-96 0 -162 -54q-69 -56 -69 -153z" />
<glyph unicode="&#xa5;" horiz-adv-x="1372" d="M47 1243q0 -78 47 -127l236 -235l-176 -2q-33 0 -57.5 -22.5t-24.5 -56.5t24.5 -56.5t57.5 -22.5h307l24 -29l4 -51h-335q-33 0 -58.5 -22.5t-25.5 -57.5t24.5 -56.5t57.5 -21.5h337l3 -477h473l-2 479h344q31 0 50 26t19 54q0 29 -19.5 52.5t-49.5 23.5l-342 -2v53 l22 29l318 2q33 0 51 25.5t18 55.5t-18.5 53.5t-50.5 23.5h-181l226 235q47 51 47 113.5t-18.5 106.5t-50.5 79q-69 76 -167 76q-110 0 -207 -117l-233 -282l-232 282q-97 117 -208 117q-97 0 -165.5 -76t-68.5 -172z" />
<glyph unicode="&#xa6;" horiz-adv-x="1431" d="M2 -250.5q0 -65.5 49 -114.5t118 -79q130 -58 277 -58q156 0 292 58q73 30 123 81t50 119.5t-34.5 111t-98.5 42.5h-22q-10 0 -46 -26q-112 -83 -239 -83q-118 0 -281 93q-30 18 -59 18t-52.5 -14.5t-40.5 -37.5q-36 -45 -36 -110.5zM47 1399q0 -84 54.5 -142.5 t138.5 -58.5t141 56.5t57 138t-58 138t-136 56.5q-126 0 -180 -115q-17 -34 -17 -73zM242 4l456 -2v889q0 92 -67 161q-67 68 -160 68q-96 0 -161 -66q-68 -67 -68 -161v-889zM248 1336q4 20 22 20q15 0 24 -14.5t19 -20.5t11 -16q0 -10 -8 -17q-18 -19 -48 12 q-4 4 -13 15.5t-7 20.5zM477 1391q0 -81 57 -137q59 -56 139.5 -56t137.5 56.5t57 138t-58 138t-139 56.5t-137.5 -57t-56.5 -139zM678 1315.5q0 9.5 5 16.5t13.5 9t24 -9t30.5 -20t17 -17.5t-2 -16.5q-16 -32 -80 22q-8 6 -8 15.5zM774 414l262 -291q65 -74 150 -74 q74 0 126 53q52 55 52 111q0 93 -61 156l-170 178l172 172q63 63 63 139q0 71 -50 125q-50 53 -109 53q-96 0 -175 -84l-258 -270z" />
<glyph unicode="&#xa7;" horiz-adv-x="1243" d="M37 529.5q0 -111.5 42 -184.5t110.5 -119t158.5 -76.5t187 -67.5h4q25 -10 47 -18.5t40 -19.5q42 -25 42 -75.5t-45 -50.5q-55 0 -97.5 29.5t-83.5 66.5t-85 67t-92 30t-86 -15.5t-67 -41.5q-67 -60 -67 -133t48 -133t118 -106q146 -97 281 -116q87 -10 157 -10t161 20.5 t165 65.5q168 102 168 295q0 121 -80 213q96 63 152.5 165.5t56.5 211t-50.5 176t-125 111.5t-161.5 74t-162 56.5t-125 57t-50 68.5q0 75 64 75q38 0 321 -170l211 307q-84 103 -279 170q-165 57 -327 57q-195 0 -303 -90q-70 -57 -119 -133t-49 -185t84 -210 q-78 -66 -121 -158t-43 -203.5zM494 566.5q0 34.5 7 46.5t21 26l187 -68q84 -29 84 -96q0 -31 -25 -49v-2l-2 -4l-182 65q-37 14 -63.5 30.5t-26.5 51z" />
<glyph unicode="&#xa8;" horiz-adv-x="663" d="M-59 1395.5q0 -80.5 54 -139t138 -58.5t140.5 56.5t56.5 138.5q0 78 -56 137q-56 57 -139 57q-79 0 -135 -54q-59 -57 -59 -137.5zM371 1391q0 -124 119 -177q34 -16 74 -16t76 15.5t64 40.5q58 55 58 139q0 79 -57.5 136.5t-140.5 57.5t-138 -57t-55 -139z" />
<glyph unicode="&#xa9;" horiz-adv-x="1740" d="M102 737q0 -158 60.5 -297t164 -242.5t243 -164t296.5 -60.5q158 0 297.5 60.5t242.5 164t163.5 243t60.5 296.5q0 158 -60.5 297.5t-163.5 243.5t-242.5 164.5t-297.5 60.5t-297 -60.5t-242.5 -164.5t-164 -243.5t-60.5 -297.5zM244 737q0 129 48 245t132 202 q182 186 442 186q131 0 245 -50t198 -136t132 -201t48 -244t-48 -244.5t-132 -202.5t-198 -137.5t-244 -50.5t-243.5 50.5t-198.5 137.5q-181 185 -181 445zM475 734q0 -97 30 -181t85 -145q119 -134 315 -134q84 0 149.5 24t97.5 51.5t32 65.5t-21.5 65.5t-50 27.5 t-51.5 -8t-47 -18q-59 -27 -109.5 -27t-94.5 22.5t-74 58.5q-62 74 -62 187q0 196 126 269q44 26 95 26t89 -12.5t77 -26.5l2 -2q14 -6 41 -6t48.5 26.5t21.5 65.5t-29 65.5t-70 41.5q-67 26 -164.5 26t-178.5 -35t-138 -97.5t-88 -147.5t-31 -182z" />
<glyph unicode="&#xaa;" horiz-adv-x="862" d="M63 1116q0 -146 88 -259q93 -120 226.5 -120t197.5 90q0 -90 97 -90q39 0 67.5 29t28.5 68v561q0 43 -33 70.5t-71.5 27.5t-62 -21.5t-23.5 -58.5q-72 84 -189 84q-143 0 -238 -121q-88 -112 -88 -260zM131 457h571q41 0 66 29.5t25 68.5t-25 68.5t-66 29.5h-571v-196z M256 1114q0 80 30 123q53 78 132 78q77 0 118 -63q35 -54 35 -136q0 -78 -27 -121q-52 -80 -126 -80q-76 0 -122 64q-40 57 -40 135z" />
<glyph unicode="&#xab;" horiz-adv-x="1130" d="M12 594q0 -61 43 -134t103 -146q117 -142 225 -240l221 227q-135 189 -229 287l172 174q63 63 63 143q0 72 -53 123q-54 53 -112 53q-102 0 -169 -86l-210 -272q-54 -68 -54 -129zM555 596q0 -63 42 -136t101 -146q105 -127 224 -240l223 227q-136 191 -230 287l172 174 q64 64 64 139.5t-52 127.5t-111 52q-104 0 -171 -86l-211 -272q-51 -64 -51 -127z" />
<glyph unicode="&#xac;" horiz-adv-x="1269" d="M59 737h959v-295h221v590h-1180v-295z" />
<glyph unicode="&#xad;" horiz-adv-x="933" d="M49 606.5q0 -78.5 54.5 -130.5t132.5 -52h696l2 367h-698q-77 0 -132 -53t-55 -131.5z" />
<glyph unicode="&#xae;" horiz-adv-x="1740" d="M102 737q0 -158 60.5 -297t164 -242.5t243 -164t296.5 -60.5q158 0 297.5 60.5t242.5 164t163.5 243t60.5 296.5q0 158 -60.5 297.5t-163.5 243.5t-242.5 164.5t-297.5 60.5t-297 -60.5t-242.5 -164.5t-164 -243.5t-60.5 -297.5zM244 737q0 129 48 245t132 202 q182 186 442 186q131 0 245 -50t198 -136t132 -201t48 -244t-48 -244.5t-132 -202.5t-198 -137.5t-244 -50.5t-243.5 50.5t-198.5 137.5q-181 185 -181 445zM528 418q0 -57 41 -99.5t99.5 -42.5t100.5 40t42 100v207l256 -379l240 149l-179 246q59 47 95.5 101.5t36.5 130.5 t-25 130t-68 91q-89 75 -227 75h-412v-749zM811 817v105h123q20 0 32.5 -16.5t12.5 -37.5q0 -20 -14.5 -35.5t-36.5 -15.5h-117z" />
<glyph unicode="&#xaf;" horiz-adv-x="745" d="M-2 1370q0 -53 34 -98t93 -45h555q59 0 100 41t41 99t-41 99t-98 41h-555q-55 0 -92 -42t-37 -95z" />
<glyph unicode="&#xb0;" horiz-adv-x="718" d="M59 1208q0 -122 87 -208q89 -87 208 -87t208 87q87 86 87 208q0 121 -87 208t-208 87t-208 -87t-87 -208zM162 1208q0 80 56.5 136.5t135.5 56.5q77 0 136 -57q57 -55 57 -136q0 -78 -57 -134q-59 -56 -136 -56q-76 0 -134 56t-58 134z" />
<glyph unicode="&#xb1;" horiz-adv-x="1265" />
<glyph unicode="&#xb2;" />
<glyph unicode="&#xb3;" />
<glyph unicode="&#xb4;" horiz-adv-x="579" d="M-4 1331q0 -53 44 -97t91 -44t70 10l372 152q41 16 66 53t25 89t-44.5 96t-103.5 44q-27 0 -53 -10l-373 -147q-41 -16 -67.5 -54.5t-26.5 -91.5z" />
<glyph unicode="&#xb5;" horiz-adv-x="1236" />
<glyph unicode="&#xb6;" horiz-adv-x="1292" d="M59 1024q0 -185 129 -316q131 -133 316 -133h125v-1032h174l4 1770h115l-2 -1770h176v1770h47q100 0 100 82q0 35 -25.5 57.5t-58.5 22.5h-653q-185 0 -316 -133t-131 -318z" />
<glyph unicode="&#xb7;" horiz-adv-x="559" d="M63 562q0 -52 19.5 -97t54.5 -79q75 -73 178 -73q104 0 175 73q73 74 73 177t-72.5 175.5t-175.5 72.5q-102 0 -177 -71q-75 -72 -75 -178z" />
<glyph unicode="&#xb8;" horiz-adv-x="423" d="M14 -182q0 -42 8.5 -68t23.5 -48q35 -50 88.5 -50t80.5 45l205 366h-283q-16 -27 -36.5 -58.5t-40.5 -64.5q-46 -80 -46 -122z" />
<glyph unicode="&#xb9;" />
<glyph unicode="&#xba;" horiz-adv-x="837" d="M59 555q0 -45 36 -71.5t77 -26.5h565v196h-565q-41 0 -77 -26.5t-36 -71.5zM59 1117q0 -77 26 -145.5t72 -121.5q100 -115 257 -115q152 0 255 116q97 110 97 267q0 155 -97 266q-99 113 -255 113q-154 0 -256 -113q-99 -111 -99 -267zM256 1099.5q0 59.5 10 94.5t30 62 q47 63 120 63q71 0 116 -65q37 -55 37 -114t-9 -95.5t-28 -66.5q-42 -69 -120 -69q-80 0 -122 71q-34 60 -34 119.5z" />
<glyph unicode="&#xbb;" horiz-adv-x="1130" d="M10 206.5q0 -75.5 52 -127.5t112 -52q103 0 170 86l211 272q51 64 51 127t-42 136t-102 146q-82 100 -222 240l-224 -227q136 -191 230 -287l-172 -174q-64 -64 -64 -139.5zM551 203q0 -70 53 -123t112 -53q102 0 169 86l211 272q53 67 53 128.5t-43 134.5t-102 146 q-99 119 -226 240l-221 -227q135 -189 229 -287l-172 -174q-63 -63 -63 -143z" />
<glyph unicode="&#xbc;" />
<glyph unicode="&#xbd;" />
<glyph unicode="&#xbe;" />
<glyph unicode="&#xbf;" horiz-adv-x="1069" d="M14 414.5q0 -123.5 48.5 -206.5t127.5 -138q154 -107 379 -107q70 0 160 21.5t169 65.5q187 104 187 259q0 72 -47 127.5t-109.5 55.5t-103.5 -21.5t-80.5 -46.5t-83 -46.5t-94.5 -21.5q-96 0 -96 70q0 23 22.5 34t56.5 20t74 20.5t73.5 34t56 62.5t22.5 106t-12 264 l-447 -6l9 -197q-136 -33 -221 -126q-91 -100 -91 -223.5zM303 1262q0 -105 74 -176q76 -72 178 -72q103 0 177 72q73 72 73 177q0 52 -19.5 98t-53.5 80q-72 72 -177 72t-178 -73q-74 -74 -74 -178z" />
<glyph unicode="&#xc0;" horiz-adv-x="1357" d="M-33 209.5q0 -55.5 19.5 -97.5t53.5 -72q71 -63 169 -63q141 0 209 147q20 42 37 89h497l70 -260l463 115l-426 1161q-43 119 -135.5 188.5t-221.5 69.5t-219 -70.5t-137 -187.5l-352 -901q-27 -63 -27 -118.5zM369 1862q0 -109 94 -146l373 -145q27 -10 53 -10 q59 0 103 44t44 95t-24.5 88t-65.5 53l-373 152q-23 10 -69.5 10t-90.5 -43t-44 -98zM592 621l110 393l111 -393h-221z" />
<glyph unicode="&#xc1;" horiz-adv-x="1357" d="M-33 209.5q0 -55.5 19.5 -97.5t53.5 -72q71 -63 169 -63q141 0 209 147q20 42 37 89h497l70 -260l463 115l-426 1161q-43 119 -135.5 188.5t-221.5 69.5t-219 -70.5t-137 -187.5l-352 -901q-27 -63 -27 -118.5zM375 1698q0 -53 44 -97.5t91 -44.5t70 11l372 151 q41 16 65.5 53t24.5 89t-44 96.5t-103 44.5q-27 0 -53 -10l-373 -148q-41 -16 -67.5 -54t-26.5 -91zM592 621l110 393l111 -393h-221z" />
<glyph unicode="&#xc2;" horiz-adv-x="1357" d="M-33 209.5q0 -55.5 19.5 -97.5t53.5 -72q71 -63 169 -63q141 0 209 147q20 42 37 89h497l70 -260l463 115l-426 1161q-43 119 -135.5 188.5t-221.5 69.5t-219 -70.5t-137 -187.5l-352 -901q-27 -63 -27 -118.5zM252 1698q0 -53 42 -98.5t105 -45.5q42 0 120.5 34 t120.5 52.5t65 28.5q25 -10 65.5 -28.5t85.5 -36.5q108 -45 160.5 -45t96.5 43t44 96t-25.5 91t-68.5 54l-281 115q-45 20 -75 20q-33 0 -78 -20l-289 -117q-41 -16 -64.5 -53t-23.5 -90zM592 621l110 393l111 -393h-221z" />
<glyph unicode="&#xc3;" horiz-adv-x="1357" d="M-33 209.5q0 -55.5 19.5 -97.5t53.5 -72q71 -63 169 -63q141 0 209 147q20 42 37 89h497l70 -260l463 115l-426 1161q-43 119 -135.5 188.5t-221.5 69.5t-219 -70.5t-137 -187.5l-352 -901q-27 -63 -27 -118.5zM293 1737q0 -53 33.5 -98.5t93.5 -45.5h555q59 0 100 41 t41 99.5t-41 99.5t-98 41h-555q-55 0 -92 -42t-37 -95zM592 621l110 393l111 -393h-221z" />
<glyph unicode="&#xc4;" horiz-adv-x="1357" d="M-33 209.5q0 -55.5 19.5 -97.5t53.5 -72q71 -63 169 -63q141 0 209 147q20 42 37 89h497l70 -260l463 115l-426 1161q-43 119 -135.5 188.5t-221.5 69.5t-219 -70.5t-137 -187.5l-352 -901q-27 -63 -27 -118.5zM180 1513q0 -59 42 -101t102.5 -42t103.5 43t43 103.5 t-42 102.5t-102 42t-103.5 -44.5t-43.5 -103.5zM592 621l110 393l111 -393h-221zM934 1514q0 -60 44 -102t103 -42t101.5 43t42.5 103q0 59 -43 102t-104.5 43t-102.5 -43.5t-41 -103.5z" />
<glyph unicode="&#xc5;" horiz-adv-x="1353" d="M-33 209.5q0 -55.5 19.5 -97.5t53.5 -72q71 -63 169 -63q141 0 209 147q20 42 37 89h497l97 -252l436 182l-426 1086q-65 168 -225 237q63 23 106 74t43 112.5t-24.5 103.5t-64.5 70q-84 60 -185 60q-108 0 -190 -60q-89 -66 -89 -169q0 -68 42 -120t103 -75 q-156 -53 -229 -233l-352 -901q-27 -63 -27 -118.5zM592 621l110 393l111 -393h-221zM655 1665.5q0 21.5 14.5 36t36.5 14.5t38 -13t16 -36t-15.5 -37t-37.5 -14q-23 0 -37.5 14t-14.5 35.5z" />
<glyph unicode="&#xc6;" horiz-adv-x="1761" d="M-59 178l426 -211l90 260l321 -10l4 -4q16 -35 30.5 -68.5t27 -59t35 -40t47.5 -25.5q50 -20 98 -20h760l-2 410h-531v120h287q86 0 144 62q59 62 59 145q0 85 -61 145q-61 58 -146 58h-285v125h318q84 0 144 59q60 58 60 144t-60 146q-61 61 -144 61h-971 q-86 0 -136 -36t-81 -116zM600 621l172 485v-485h-172z" />
<glyph unicode="&#xc7;" horiz-adv-x="1318" d="M41 748q0 -138 48 -260.5t131 -221.5q175 -207 439 -262l-41 -42q-112 -111 -112 -161.5t33.5 -83t81.5 -32.5q47 0 79 36l207 244l-35 21q162 5 298 72q71 36 120 93.5t49 119t-17 96t-46 60.5q-58 52 -143 52q-60 0 -130 -21q-130 -40 -202 -40t-127.5 25.5t-93.5 69.5 q-76 90 -76 232q0 140 94 227q80 75 227 101q27 6 54 6q138 0 305 -86l127 367q-370 121 -551 121h-23q-12 0 -22 -2q-135 -18 -258 -83t-215 -162t-146.5 -222.5t-54.5 -263.5z" />
<glyph unicode="&#xc8;" horiz-adv-x="1032" d="M59 242q0 -95 70 -167q73 -75 166 -75h756l-2 410h-517v127h269q83 0 149 55q68 57 68 141t-65 144t-154 61h-267v125h324q85 0 144 61t59 146q0 80 -57 143q-57 62 -142 62h-117l-684 -2v-1231zM205 1862q0 -109 94 -146l373 -145q27 -10 53 -10q59 0 103 44t44 95 t-24.5 88t-65.5 53l-372 152q-23 10 -70 10t-91 -43t-44 -98z" />
<glyph unicode="&#xc9;" horiz-adv-x="1032" d="M59 242q0 -95 70 -167q73 -75 166 -75h756l-2 410h-517v127h269q83 0 149 55q68 57 68 141t-65 144t-154 61h-267v125h324q85 0 144 61t59 146q0 80 -57 143q-57 62 -142 62h-117l-684 -2v-1231zM211 1698q0 -53 44 -97.5t91 -44.5t70 11l372 151q41 16 66 53t25 89 t-44.5 96.5t-103.5 44.5q-27 0 -53 -10l-373 -148q-41 -16 -67.5 -54t-26.5 -91z" />
<glyph unicode="&#xca;" horiz-adv-x="1032" d="M59 242q0 -95 70 -167q73 -75 166 -75h756l-2 410h-517v127h269q83 0 149 55q68 57 68 141t-65 144t-154 61h-267v125h324q85 0 144 61t59 146q0 80 -57 143q-57 62 -142 62h-117l-684 -2v-1231zM88 1698q0 -53 42 -98.5t106 -45.5q41 0 119.5 34t120.5 52.5t65 28.5 q25 -10 65.5 -28.5t85.5 -36.5q108 -45 160.5 -45t96.5 43t44 96t-25.5 91t-68.5 54l-281 115q-45 20 -75 20q-33 0 -78 -20l-289 -117q-41 -16 -64.5 -53t-23.5 -90z" />
<glyph unicode="&#xcb;" horiz-adv-x="1032" d="M59 242q0 -95 70 -167q73 -75 166 -75h756l-2 410h-517v127h269q83 0 149 55q68 57 68 141t-65 144t-154 61h-267v125h324q85 0 144 61t59 146q0 80 -57 143q-57 62 -142 62h-117l-684 -2v-1231zM133 1761.5q0 -80.5 54.5 -138.5t138.5 -58t140 56t56 138q0 80 -56 137 q-56 58 -138 58q-79 0 -136 -54q-59 -58 -59 -138.5zM563 1758q0 -81 57.5 -137t136.5 -56t138 55t59 138t-58 139.5t-140 56.5t-137.5 -57.5t-55.5 -138.5z" />
<glyph unicode="&#xcc;" horiz-adv-x="542" d="M-43 1862q0 -109 94 -146l373 -145q27 -10 53 -10q59 0 103.5 44t44.5 95t-25 88t-65 53l-373 152q-23 10 -70 10t-91 -43t-44 -98zM59 -2h473v1253q0 99 -68 167q-71 71 -167 71t-168 -69q-70 -66 -70 -167v-1255z" />
<glyph unicode="&#xcd;" horiz-adv-x="542" d="M-37 1698q0 -53 44 -97.5t91.5 -44.5t69.5 11l373 151q41 16 65.5 53t24.5 89t-44.5 96.5t-103.5 44.5q-27 0 -53 -10l-373 -148q-41 -16 -67.5 -54t-26.5 -91zM59 -2h473v1253q0 99 -68 167q-71 71 -167 71t-168 -69q-70 -66 -70 -167v-1255z" />
<glyph unicode="&#xce;" horiz-adv-x="542" d="M-160 1698q0 -53 42 -98.5t106 -45.5q41 0 119.5 34t120.5 52.5t65 28.5q25 -10 65.5 -28.5t85.5 -36.5q108 -45 160.5 -45t96.5 43t44 96t-25.5 91t-68.5 54l-280 115q-45 20 -76 20q-30 0 -78 -20l-289 -117q-41 -16 -64.5 -53t-23.5 -90zM59 -2h473v1253q0 99 -68 167 q-71 71 -167 71t-168 -69q-70 -66 -70 -167v-1255z" />
<glyph unicode="&#xcf;" horiz-adv-x="542" d="M-115 1761.5q0 -80.5 54.5 -138.5t138.5 -58t140 56t56 138q0 80 -55.5 137.5t-138.5 57.5q-79 0 -136 -54q-59 -58 -59 -138.5zM59 -2h473v1253q0 99 -68 167q-71 71 -167 71t-168 -69q-70 -66 -70 -167v-1255zM315 1758q0 -81 57.5 -137t137 -56t138.5 55.5t59 137 t-57.5 139t-140.5 57.5t-138.5 -57.5t-55.5 -138.5z" />
<glyph unicode="&#xd0;" />
<glyph unicode="&#xd1;" horiz-adv-x="1497" d="M59 244q0 -107 67 -182q71 -78 173 -78q97 0 166 70q67 69 67 167v500l537 -651q73 -86 182 -86q103 0 169 68q69 70 69 167v1032q0 99 -70 167q-73 71 -166 71q-97 0 -167 -71q-70 -72 -70 -167v-481l-520 610q-98 113 -203 113q-98 0 -167 -73q-67 -71 -67 -169v-1007z M360 1737q0 -53 34 -98.5t93 -45.5h555q59 0 100.5 41t41.5 99.5t-41 99.5t-99 41h-555q-55 0 -92 -42t-37 -95z" />
<glyph unicode="&#xd2;" horiz-adv-x="1585" d="M41 737q0 -160 64.5 -298t172 -240.5t250 -160.5t297.5 -58q156 0 298.5 58t250 160.5t172 241t64.5 297.5q0 160 -64.5 298.5t-172 240.5t-250 160.5t-298.5 58.5t-297 -58.5t-249.5 -160.5t-173 -240.5t-64.5 -298.5zM487 1862q0 -108 95 -146l372 -145q27 -10 54 -10 q59 0 103 44t44 95t-24.5 88t-65.5 53l-373 152q-23 10 -69.5 10t-91 -43t-44.5 -98zM510 737q0 143 86 242q91 104 229 104q139 0 231 -105q87 -99 87 -245q0 -136 -89 -239q-90 -103 -231 -103q-136 0 -227 106q-86 101 -86 240z" />
<glyph unicode="&#xd3;" horiz-adv-x="1585" d="M41 737q0 -160 64.5 -298t172 -240.5t250 -160.5t297.5 -58q156 0 298.5 58t250 160.5t172 241t64.5 297.5q0 160 -64.5 298.5t-172 240.5t-250 160.5t-298.5 58.5t-297 -58.5t-249.5 -160.5t-173 -240.5t-64.5 -298.5zM494 1698q0 -53 44 -97.5t91 -44.5t69 11l373 151 q41 16 65.5 53t24.5 89t-44 96.5t-103 44.5q-27 0 -53 -10l-373 -148q-41 -16 -67.5 -54t-26.5 -91zM510 737q0 143 86 242q91 104 229 104q139 0 231 -105q87 -99 87 -245q0 -136 -89 -239q-90 -103 -231 -103q-136 0 -227 106q-86 101 -86 240z" />
<glyph unicode="&#xd4;" horiz-adv-x="1585" d="M41 737q0 -160 64.5 -298t172 -240.5t250 -160.5t297.5 -58q156 0 298.5 58t250 160.5t172 241t64.5 297.5q0 160 -64.5 298.5t-172 240.5t-250 160.5t-298.5 58.5t-297 -58.5t-249.5 -160.5t-173 -240.5t-64.5 -298.5zM371 1698q0 -53 42 -98.5t99.5 -45.5t310.5 115 q25 -10 66 -28.5t86 -36.5q108 -45 160 -45t96.5 43t44.5 96t-25.5 91t-68.5 54l-281 115q-45 20 -76 20q-32 0 -77 -20l-289 -117q-41 -16 -64.5 -53t-23.5 -90zM510 737q0 143 86 242q91 104 229 104q139 0 231 -105q87 -99 87 -245q0 -136 -89 -239q-90 -103 -231 -103 q-136 0 -227 106q-86 101 -86 240z" />
<glyph unicode="&#xd5;" horiz-adv-x="1585" d="M41 737q0 -160 64.5 -298t172 -240.5t250 -160.5t297.5 -58q156 0 298.5 58t250 160.5t172 241t64.5 297.5q0 160 -64.5 298.5t-172 240.5t-250 160.5t-298.5 58.5t-297 -58.5t-249.5 -160.5t-173 -240.5t-64.5 -298.5zM412 1737q0 -53 33.5 -98.5t93.5 -45.5h555 q59 0 100 41t41 99.5t-41 99.5t-98 41h-555q-55 0 -92 -42t-37 -95zM510 737q0 143 86 242q91 104 229 104q139 0 231 -105q87 -99 87 -245q0 -136 -89 -239q-90 -103 -231 -103q-136 0 -227 106q-86 101 -86 240z" />
<glyph unicode="&#xd6;" horiz-adv-x="1585" d="M41 737q0 -160 64.5 -298t172 -240.5t250 -160.5t297.5 -58q156 0 298.5 58t250 160.5t172 241t64.5 297.5q0 160 -64.5 298.5t-172 240.5t-250 160.5t-298.5 58.5t-297 -58.5t-249.5 -160.5t-173 -240.5t-64.5 -298.5zM74 1507q0 -61 44 -104t103 -43t103.5 43t44.5 102 t-43 102.5t-104.5 43.5t-104.5 -41.5t-43 -102.5zM510 737q0 143 86 242q91 104 229 104q139 0 231 -105q87 -99 87 -245q0 -136 -89 -239q-90 -103 -231 -103q-136 0 -227 106q-86 101 -86 240zM1284 1504q0 -58 43 -101t103 -43q59 0 103 43t44 104t-45 102.5t-105.5 41.5 t-101.5 -44.5t-41 -102.5z" />
<glyph unicode="&#xd7;" />
<glyph unicode="&#xd8;" horiz-adv-x="1589" d="M41 735q0 -290 203 -491l-201 -197l80 -86l203 199q216 -183 497 -183q154 0 295.5 58.5t251 160t174 238.5t64.5 281.5t-50.5 277.5t-130.5 238q14 14 46 41.5t65 60.5q84 84 84 109t-17.5 42t-37.5 17t-52 -24.5t-66 -57.5t-64 -63.5t-44 -44.5q-229 186 -514 186 q-158 0 -300 -58.5t-250.5 -161.5t-172 -242.5t-63.5 -299.5zM508 718q0 87 22.5 149.5t63.5 110.5q90 105 229 105q115 0 213 -73l-479 -459q-49 80 -49 167zM637 465l465 444q39 -84 39 -161t-24.5 -139t-67.5 -110q-97 -108 -230 -108q-108 0 -182 74z" />
<glyph unicode="&#xd9;" horiz-adv-x="1511" d="M59 662q0 -313 207 -501q195 -177 520 -177q323 0 522 177q208 186 208 501v589q0 102 -70 171q-73 71 -168 71q-92 0 -166 -71q-70 -66 -70 -167v-608q0 -117 -68.5 -188.5t-186.5 -71.5t-186.5 71.5t-68.5 188.5v830h-473v-815zM449 1862q0 -109 94 -146l372 -145 q27 -10 54 -10q59 0 103 44t44 95t-24.5 88t-65.5 53l-373 152q-23 10 -69.5 10t-90.5 -43t-44 -98z" />
<glyph unicode="&#xda;" horiz-adv-x="1511" d="M59 662q0 -313 207 -501q195 -177 520 -177q323 0 522 177q208 186 208 501v589q0 102 -70 171q-73 71 -168 71q-92 0 -166 -71q-70 -66 -70 -167v-608q0 -117 -68.5 -188.5t-186.5 -71.5t-186.5 71.5t-68.5 188.5v830h-473v-815zM455 1698q0 -53 44 -97.5t91 -44.5 t69 11l373 151q41 16 65.5 53t24.5 89t-44 96.5t-103 44.5q-27 0 -53 -10l-373 -148q-41 -16 -67.5 -54t-26.5 -91z" />
<glyph unicode="&#xdb;" horiz-adv-x="1511" d="M59 662q0 -313 207 -501q195 -177 520 -177q323 0 522 177q208 186 208 501v589q0 102 -70 171q-73 71 -168 71q-92 0 -166 -71q-70 -66 -70 -167v-608q0 -117 -68.5 -188.5t-186.5 -71.5t-186.5 71.5t-68.5 188.5v830h-473v-815zM332 1698q0 -53 42 -98.5t99.5 -45.5 t310.5 115q25 -10 66 -28.5t86 -36.5q108 -45 160.5 -45t96.5 43t44 96t-25.5 91t-68.5 54l-281 115q-45 20 -76 20q-32 0 -77 -20l-289 -117q-41 -16 -64.5 -53t-23.5 -90z" />
<glyph unicode="&#xdc;" horiz-adv-x="1511" d="M59 662q0 -313 207 -501q195 -177 520 -177q320 0 520 177q210 185 210 501v589q0 102 -70 171q-73 71 -168 71t-167 -71q-69 -67 -69 -167v-608q0 -117 -68.5 -188.5t-186.5 -71.5t-186.5 71.5t-68.5 188.5v746q35 -23 86 -23t93.5 43t42.5 103q0 59 -43 101t-103 42 q-59 0 -101 -43.5t-42 -102.5q0 -14 4 -34l-410 -2v-815zM821 1513q0 -59 42 -101t102 -42q59 0 102 43t43 103q0 59 -43 101t-102 42t-101.5 -43.5t-42.5 -102.5z" />
<glyph unicode="&#xdd;" />
<glyph unicode="&#xde;" />
<glyph unicode="&#xdf;" horiz-adv-x="1243" d="M59 -487h455v1521q0 164 115 164q72 0 100 -42q10 -15 10 -45t-32.5 -47t-72.5 -40t-73 -61.5t-33 -110t21.5 -106.5t54.5 -55.5t72 -31t72 -22.5q75 -28 75 -96q0 -39 -21.5 -61.5t-54 -40t-69.5 -34t-70 -39.5q-76 -55 -76 -158.5t69 -163.5t168 -60t187 50t157 128 t111 173t42 167.5t-17.5 128t-48.5 104.5q-68 107 -170 144q117 121 117 276q0 197 -157 319q-145 113 -349 113q-252 0 -418 -159q-164 -156 -164 -414v-1501z" />
<glyph unicode="&#xe0;" horiz-adv-x="1255" d="M41 539q0 -239 155 -397q159 -160 392 -160q177 0 260 133q-5 -37 0 -115h395v899q0 98 -52 161.5t-157 63.5q-64 0 -105 -24q-77 -43 -81 -107q-79 133 -260 133q-121 0 -222.5 -48t-173.5 -129q-151 -172 -151 -410zM313 1496q0 -54 26 -92t69 -54l372 -146 q27 -10 54 -10q59 0 103 44t44 95q0 105 -90 142l-373 151q-23 10 -69.5 10t-91 -43t-44.5 -97zM494 543q0 112 88 165q28 17 65 17q74 0 116 -53.5t42 -105.5t-11.5 -84.5t-31.5 -58.5q-45 -56 -115 -56q-67 0 -113 55q-40 48 -40 121z" />
<glyph unicode="&#xe1;" horiz-adv-x="1255" d="M41 539q0 -239 155 -397q159 -160 392 -160q177 0 260 133q-5 -37 0 -115h395v899q0 98 -52 161.5t-157 63.5q-64 0 -105 -24q-77 -43 -81 -107q-79 133 -260 133q-121 0 -222.5 -48t-173.5 -129q-151 -172 -151 -410zM319 1331q0 -53 44.5 -97t91.5 -44t69 10l373 152 q41 16 65.5 53t24.5 89t-44 96t-103 44q-27 0 -54 -10l-372 -147q-41 -16 -68 -54.5t-27 -91.5zM494 543q0 112 88 165q28 17 65 17q74 0 116 -53.5t42 -105.5t-11.5 -84.5t-31.5 -58.5q-45 -56 -115 -56q-67 0 -113 55q-40 48 -40 121z" />
<glyph unicode="&#xe2;" horiz-adv-x="1255" d="M41 539q0 -239 155 -397q159 -160 392 -160q177 0 260 133q-5 -37 0 -115h395v899q0 98 -52 161.5t-157 63.5q-64 0 -105 -24q-77 -43 -81 -107q-79 133 -260 133q-121 0 -222.5 -48t-173.5 -129q-151 -172 -151 -410zM197 1331q0 -53 42 -98t105 -45q40 0 120 34 q143 60 185 81q25 -10 66 -29t86 -37q113 -45 162.5 -45t94 43t44.5 96t-25.5 91t-68.5 55l-281 114q-47 21 -76 21q-28 0 -78 -21l-288 -116q-41 -16 -64.5 -53.5t-23.5 -90.5zM494 543q0 112 88 165q28 17 65 17q74 0 116 -53.5t42 -105.5t-11.5 -84.5t-31.5 -58.5 q-45 -56 -115 -56q-67 0 -113 55q-40 48 -40 121z" />
<glyph unicode="&#xe3;" horiz-adv-x="1255" d="M41 539q0 -239 155 -397q159 -160 392 -160q177 0 260 133q-5 -37 0 -115h395v899q0 98 -52 161.5t-157 63.5q-64 0 -105 -24q-77 -43 -81 -107q-79 133 -260 133q-121 0 -222.5 -48t-173.5 -129q-151 -172 -151 -410zM238 1370q0 -53 33.5 -98t93.5 -45h555q59 0 100 41 t41 99t-41 99t-98 41h-555q-55 0 -92 -42t-37 -95zM494 543q0 112 88 165q28 17 65 17q74 0 116 -53.5t42 -105.5t-11.5 -84.5t-31.5 -58.5q-45 -56 -115 -56q-67 0 -113 55q-40 48 -40 121z" />
<glyph unicode="&#xe4;" horiz-adv-x="1255" d="M41 539q0 -239 155 -397q159 -160 392 -160q177 0 260 133q-5 -37 0 -115h395v899q0 98 -52 161.5t-157 63.5q-64 0 -105 -24q-77 -43 -81 -107q-79 133 -260 133q-121 0 -222.5 -48t-173.5 -129q-151 -172 -151 -410zM274 1362.5q0 -79.5 59 -136.5t138.5 -57t137 56.5 t57.5 138.5t-57.5 138.5t-139.5 56.5t-138.5 -58.5t-56.5 -138zM494 543q0 112 88 165q28 17 65 17q74 0 116 -53.5t42 -105.5t-11.5 -84.5t-31.5 -58.5q-45 -56 -115 -56q-67 0 -113 55q-40 48 -40 121zM700 1362.5q0 -79.5 59 -136.5t140 -57q79 0 137 59q56 59 56 139.5 t-58.5 137t-141.5 56.5t-137.5 -59.5t-54.5 -139z" />
<glyph unicode="&#xe5;" horiz-adv-x="1255" d="M41 539q0 -239 155 -397q159 -160 392 -160q177 0 260 133q-5 -37 0 -115h395v899q0 98 -52 161.5t-157 63.5q-64 0 -105 -24q-77 -43 -81 -107q-79 133 -260 133q-121 0 -222.5 -48t-173.5 -129q-151 -172 -151 -410zM434 1380q0 -53 23.5 -95t61.5 -71q77 -57 183 -57 q99 0 176 63q83 66 83 162q0 99 -85 164q-76 60 -178 60q-100 0 -179 -60q-85 -63 -85 -166zM494 543q0 112 88 165q28 17 65 17q74 0 116 -53.5t42 -105.5t-11.5 -84.5t-31.5 -58.5q-45 -56 -115 -56q-67 0 -113 55q-40 48 -40 121zM639 1382q0 25 17.5 40.5t41 15.5 t40 -16.5t16.5 -39.5t-16.5 -40t-39.5 -17t-41 16t-18 41z" />
<glyph unicode="&#xe6;" horiz-adv-x="1951" d="M41 547q0 -241 149 -401q156 -166 390 -166q167 0 251 98q0 -98 185 -98q80 0 133 53q127 -58 285 -58q204 0 364 54l-47 342q0 2 -2 6q-16 0 -37 -5q-41 -10 -94 -12l-125 -6q-165 0 -238 99h547q174 0 174 159q0 50 -26 136q-60 171 -216 279q-150 103 -337 103 q-137 0 -248 -47q-56 56 -158 56q-108 0 -147 -65q-15 -23 -15 -56q-43 84 -191 103q-38 5 -71 5q-117 0 -214 -49t-165 -130q-147 -173 -147 -400zM494 559q0 71 42 123q46 55 115 55q104 0 141 -109q11 -30 11 -82.5t-42 -106.5t-118 -54q-104 0 -139 109q-10 32 -10 65z M1260 680q4 45 39.5 81t85.5 36t82 -33t38 -84h-245z" />
<glyph unicode="&#xe7;" horiz-adv-x="1048" d="M41 545q0 -190 130 -345q124 -147 312 -194q-14 -16 -31.5 -33.5t-33.5 -36.5q-39 -46 -39 -88t35 -74t83 -32t78 37l177 207q144 11 213 48.5t103 82.5t34 99t-16.5 89t-43.5 61q-60 58 -137 58q-40 0 -93 -12q-94 -23 -158 -23t-113 43t-49 119t52 115t124 39 q61 0 171.5 -27t141.5 -33l84 391q-100 27 -203 50.5t-216.5 23.5t-224 -40t-195.5 -114q-185 -159 -185 -411z" />
<glyph unicode="&#xe8;" horiz-adv-x="1206" d="M41 553q0 -267 206 -426q185 -143 464 -143q172 0 309 45l-49 348q-154 -29 -220 -29q-161 0 -233 96h533q88 0 137 33t49 136.5t-52 197.5t-136 162.5t-188.5 107.5t-218.5 39t-224.5 -41t-194.5 -115q-182 -159 -182 -411zM297 1496q0 -54 25.5 -92t68.5 -54l373 -146 q27 -10 53 -10q59 0 103.5 44t44.5 95t-25 88t-66 54l-372 151q-23 10 -70 10t-91 -43t-44 -97zM522 666q10 49 43 83.5t85 34.5t82 -34.5t34 -83.5h-244z" />
<glyph unicode="&#xe9;" horiz-adv-x="1206" d="M41 553q0 -267 206 -426q185 -143 464 -143q172 0 309 45l-49 348q-154 -29 -220 -29q-161 0 -233 96h533q88 0 137 33t49 136.5t-52 197.5t-136 162.5t-188.5 107.5t-218.5 39t-224.5 -41t-194.5 -115q-182 -159 -182 -411zM303 1331q0 -53 44 -97t91.5 -44t69.5 10 l373 152q41 16 65.5 53t24.5 89t-44.5 96t-103.5 44q-27 0 -53 -10l-373 -147q-41 -16 -67.5 -54.5t-26.5 -91.5zM522 666q10 49 43 83.5t85 34.5t82 -34.5t34 -83.5h-244z" />
<glyph unicode="&#xea;" horiz-adv-x="1206" d="M41 553q0 -267 206 -426q185 -143 464 -143q172 0 309 45l-49 348q-154 -29 -220 -29q-161 0 -233 96h533q88 0 137 33t49 136.5t-52 197.5t-136 162.5t-188.5 107.5t-218.5 39t-224.5 -41t-194.5 -115q-182 -159 -182 -411zM180 1331q0 -53 42 -98t106.5 -45t304.5 115 q25 -10 65.5 -29t85.5 -37q112 -45 162.5 -45t94.5 43t44 96t-25.5 91t-68.5 55l-280 114q-47 21 -76 21q-31 0 -78 -21l-289 -116q-41 -16 -64.5 -53.5t-23.5 -90.5zM522 666q10 49 43 83.5t85 34.5t82 -34.5t34 -83.5h-244z" />
<glyph unicode="&#xeb;" horiz-adv-x="1206" d="M41 553q0 -267 206 -426q185 -143 464 -143q172 0 309 45l-49 348q-154 -29 -220 -29q-161 0 -233 96h533q88 0 137 33t49 136.5t-52 197.5t-136 162.5t-188.5 107.5t-218.5 39t-224.5 -41t-194.5 -115q-182 -159 -182 -411zM225 1399q0 -84 54.5 -142.5t138.5 -58.5 t140 56.5t56 138.5q0 79 -56 137q-56 57 -138 57q-124 0 -178 -115q-17 -34 -17 -73zM522 666q10 49 43 83.5t85 34.5t82 -34.5t34 -83.5h-244zM655 1391.5q0 -81.5 58 -137.5t136.5 -56t138 55.5t59.5 137t-57.5 139t-140.5 57.5t-138.5 -57t-55.5 -138.5z" />
<glyph unicode="&#xec;" horiz-adv-x="499" d="M-57 1496q0 -54 25.5 -92t68.5 -54l373 -146q27 -10 53 -10q59 0 103 44t44 95q0 105 -90 142l-373 151q-23 10 -69.5 10t-90.5 -43t-44 -97zM66 4l456 -2v889q0 91 -68 161q-66 68 -159 68q-95 0 -162 -66q-67 -65 -67 -161v-889z" />
<glyph unicode="&#xed;" horiz-adv-x="499" d="M-51 1331q0 -53 44 -97t91 -44t70 10l372 152q41 16 65.5 53t24.5 89t-44 96t-103 44q-27 0 -53 -10l-373 -147q-41 -16 -67.5 -54.5t-26.5 -91.5zM66 4l456 -2v889q0 91 -68 161q-66 68 -159 68q-95 0 -162 -66q-67 -65 -67 -161v-889z" />
<glyph unicode="&#xee;" horiz-adv-x="499" d="M-174 1331q0 -53 42 -98t106.5 -45t304.5 115q25 -10 65.5 -29t85.5 -37q112 -45 162.5 -45t94.5 43t44 96t-25.5 91t-68.5 55l-281 114q-47 21 -75 21q-31 0 -78 -21l-289 -116q-41 -16 -64.5 -53.5t-23.5 -90.5zM66 4l456 -2v889q0 91 -68 161q-66 68 -159 68 q-95 0 -162 -66q-67 -65 -67 -161v-889z" />
<glyph unicode="&#xef;" horiz-adv-x="499" d="M-129 1399q0 -84 54.5 -142.5t138.5 -58.5t140 56.5t56 138.5q0 78 -56 137q-56 57 -138 57q-124 0 -178 -115q-17 -34 -17 -73zM66 4l456 -2v889q0 91 -68 161q-66 68 -159 68q-95 0 -162 -66q-67 -65 -67 -161v-889zM301 1391.5q0 -81.5 58 -137.5t135.5 -56 t137.5 54.5t60 138t-58 140t-140 56.5t-137.5 -57t-55.5 -138.5z" />
<glyph unicode="&#xf0;" />
<glyph unicode="&#xf1;" horiz-adv-x="1212" d="M59 0h455v635q0 47 34 81t81 34t80.5 -34t33.5 -81v-426q0 -94 68 -162q65 -65 164 -65q95 0 159 68q68 71 68 161v524q0 178 -140 288q-128 101 -317.5 101t-285.5 -139q-14 63 -63.5 102t-105.5 39t-97 -19.5t-71 -50.5q-63 -67 -63 -163v-893zM217 1370q0 -53 34 -98 t93 -45h555q59 0 100 41t41 99t-41 99t-98 41h-555q-55 0 -92 -42t-37 -95z" />
<glyph unicode="&#xf2;" horiz-adv-x="1230" d="M41 547q0 -245 182 -410q177 -160 424 -160q249 0 425 163q181 168 181 413q0 246 -181 413q-174 160 -425 160q-252 0 -427 -164q-179 -167 -179 -415zM309 1496q0 -54 25.5 -92t68.5 -54l373 -146q27 -10 53 -10q59 0 103.5 44t44.5 95q0 105 -90 142l-373 151 q-23 10 -69.5 10t-91 -43t-44.5 -97zM487 549q0 71 43 125q46 57 117 57t117 -57q43 -54 43 -126.5t-39 -131t-121 -58.5q-72 0 -119 60q-41 53 -41 131z" />
<glyph unicode="&#xf3;" horiz-adv-x="1230" d="M41 547q0 -245 182 -410q177 -160 424 -160q249 0 425 163q181 168 181 413q0 246 -181 413q-174 160 -425 160q-252 0 -427 -164q-179 -167 -179 -415zM315 1331q0 -53 44 -97t91.5 -44t69.5 10l373 152q41 16 65.5 53t24.5 89t-44 96t-103 44q-27 0 -54 -10l-372 -147 q-41 -16 -68 -54.5t-27 -91.5zM487 549q0 71 43 125q46 57 117 57t117 -57q43 -54 43 -126.5t-39 -131t-121 -58.5q-72 0 -119 60q-41 53 -41 131z" />
<glyph unicode="&#xf4;" horiz-adv-x="1230" d="M41 547q0 -245 182 -410q177 -160 424 -160q249 0 425 163q181 168 181 413q0 246 -181 413q-174 160 -425 160q-252 0 -427 -164q-179 -167 -179 -415zM193 1331q0 -53 41.5 -98t105.5 -45q40 0 120 34q143 60 185 81q25 -10 66 -29t86 -37q112 -45 162 -45t94.5 43 t44.5 96t-25.5 91t-68.5 55l-281 114q-47 21 -76 21q-28 0 -78 -21l-288 -116q-41 -16 -64.5 -53.5t-23.5 -90.5zM487 549q0 71 43 125q46 57 117 57t117 -57q43 -54 43 -126.5t-39 -131t-121 -58.5q-72 0 -119 60q-41 53 -41 131z" />
<glyph unicode="&#xf5;" horiz-adv-x="1230" d="M41 547q0 -245 182 -410q177 -160 424 -160q249 0 425 163q181 168 181 413q0 246 -181 413q-174 160 -425 160q-252 0 -427 -164q-179 -167 -179 -415zM233 1370q0 -53 34 -98t93 -45h555q59 0 100.5 41t41.5 99t-41 99t-98 41h-556q-55 0 -92 -42t-37 -95zM487 549 q0 71 43 125q46 57 117 57t117 -57q43 -54 43 -126.5t-39 -131t-121 -58.5q-72 0 -119 60q-41 53 -41 131z" />
<glyph unicode="&#xf6;" horiz-adv-x="1230" d="M41 549q0 -245 182 -410q179 -162 424 -162q249 0 425 163q181 168 181 413q0 246 -181 413q-174 160 -425 160t-427 -162q-179 -165 -179 -415zM240 1358.5q0 -81.5 59.5 -137.5t138 -56t136 57.5t57.5 137.5q0 82 -57 140q-57 56 -140.5 56t-138.5 -58t-55 -139.5z M487 526q0 91 44 148t118 57q105 0 147 -117q11 -32 11 -86.5t-40 -112t-122 -57.5q-72 0 -117 58q-41 53 -41 110zM664 1359.5q0 -82.5 59.5 -138.5t136.5 -56q78 0 138 57q59 54 59 138q0 77 -57 138q-55 58 -139.5 58t-140.5 -57t-56 -139.5z" />
<glyph unicode="&#xf7;" horiz-adv-x="1265" />
<glyph unicode="&#xf8;" horiz-adv-x="1230" d="M41 557q0 -106 39 -207.5t110 -179.5l-147 -143l66 -60l145 142q166 -134 383 -134q250 0 429 160q183 164 183 416q0 215 -147 381q8 8 34.5 31.5t54.5 50.5q71 70 71 86q0 49 -37 49q-31 0 -78 -45t-72 -72t-39 -41q-151 139 -379 139q-252 0 -431 -158 q-185 -163 -185 -415zM485 565.5q0 26.5 12.5 57t34.5 55.5q46 53 104 53t103 -33l-239 -225q-4 23 -9.5 44.5t-5.5 48zM547 395l244 230q12 -37 12 -96.5t-39 -115t-121 -55.5q-59 0 -96 37z" />
<glyph unicode="&#xf9;" horiz-adv-x="1208" d="M59 498q0 -521 568.5 -521t568.5 521v395q0 94 -68 161q-65 66 -161 66q-95 0 -162 -68q-68 -70 -68 -163v-389q0 -51 -27.5 -88t-82.5 -37t-83 37t-28 88v596l-457 2v-600zM289 1496q0 -54 25.5 -92t68.5 -54l373 -146q27 -10 53 -10q59 0 103 44t44 95q0 105 -90 142 l-372 151q-23 10 -70 10t-91 -43t-44 -97z" />
<glyph unicode="&#xfa;" horiz-adv-x="1208" d="M59 498q0 -521 568.5 -521t568.5 521v395q0 94 -68 161q-65 66 -161 66q-95 0 -162 -68q-68 -70 -68 -163v-389q0 -51 -27.5 -88t-82.5 -37t-83 37t-28 88v596l-457 2v-600zM295 1331q0 -53 44 -97t91 -44t70 10l372 152q41 16 66 53t25 89t-44.5 96t-103.5 44 q-27 0 -53 -10l-373 -147q-41 -16 -67.5 -54.5t-26.5 -91.5z" />
<glyph unicode="&#xfb;" horiz-adv-x="1208" d="M59 498q0 -521 568.5 -521t568.5 521v395q0 94 -68 161q-65 66 -161 66q-95 0 -162 -68q-68 -70 -68 -163v-389q0 -51 -27.5 -88t-82.5 -37t-83 37t-28 88v596l-457 2v-600zM172 1331q0 -53 42 -98t106.5 -45t304.5 115q25 -10 65.5 -29t85.5 -37q113 -45 163 -45t94 43 t44 96t-25.5 91t-68.5 55l-281 114q-47 21 -75 21q-31 0 -78 -21l-289 -116q-41 -16 -64.5 -53.5t-23.5 -90.5z" />
<glyph unicode="&#xfc;" horiz-adv-x="1208" d="M59 498q0 -521 568.5 -521t568.5 521v395q0 94 -68 161q-65 66 -161 66q-95 0 -162 -68q-68 -70 -68 -163v-389q0 -51 -27.5 -88t-82.5 -37t-83 37t-28 88v596l-457 2v-600zM217 1353.5q0 -80.5 59 -137.5t138.5 -57t136.5 56.5t57 138.5q0 80 -57 137t-139 57 t-138.5 -57t-56.5 -137.5zM647 1351.5q0 -80.5 58 -136.5t139.5 -56t137.5 57.5t56 139.5t-59 137t-140 55t-136.5 -58t-55.5 -138.5z" />
<glyph unicode="&#xfd;" />
<glyph unicode="&#xfe;" />
<glyph unicode="&#xff;" horiz-adv-x="1017" d="M-45 924l354 -813l-157 -342q-20 -43 -20.5 -92.5t18 -86t48.5 -64.5q64 -58 150 -58t136.5 45t80.5 116l504 1170q23 51 23 100t-18.5 90t-50.5 69q-71 64 -162 64t-139 -53t-75 -133l-104 -311l-189 479zM131 1399q0 -84 54.5 -142.5t138.5 -58.5t140 56.5t56 138.5 q0 78 -56 137q-56 57 -138 57q-124 0 -178 -115q-17 -34 -17 -73zM561 1391.5q0 -81.5 58 -137.5t135.5 -56t137.5 54.5t60 138t-58 140t-140 56.5t-137.5 -57t-55.5 -138.5z" />
<glyph unicode="&#x152;" horiz-adv-x="2119" d="M41 722.5q0 -145.5 63.5 -284.5t170 -243.5t247 -166t295.5 -61.5q178 0 326 65q51 23 88 54v2q20 -53 44.5 -70.5t84.5 -17.5l612 -6q86 0 146 60q61 61 61 145q0 81 -61 145q-58 62 -144 62h-356v118h280q82 0 142.5 60.5t60.5 142.5q0 135 -123 191q-36 16 -80 16 h-282v125h471v416h-719q-57 0 -97 -19.5t-40 -85.5q-137 137 -395 137q-59 0 -174 -14t-233 -85t-204 -175.5t-135 -234.5t-49 -275.5zM512 736q0 71 18.5 137.5t55.5 117.5q83 115 229 115q147 0 240 -106q88 -102 88 -252t-78 -252q-86 -111 -231 -111q-151 0 -238 103 q-84 100 -84 248z" />
<glyph unicode="&#x153;" horiz-adv-x="1951" d="M43 551q0 -127 48 -232.5t130 -182.5q171 -161 426 -161q205 0 357 107q167 -105 397 -105q140 0 260.5 19.5t157.5 32.5q-8 66 -17.5 129t-17.5 129l-8 63q-4 12 -4 23q-4 4 -12 4q-14 0 -68 -17q-173 -41 -241 -41q-147 0 -212 117h555q78 0 124 39t46 101 q0 94 -37 185t-95 157.5t-132 111.5q-151 92 -340 92q-111 0 -168 -18q-88 -29 -184 -82q-90 49 -171 76.5t-194 27.5t-222.5 -43t-193.5 -118.5t-134 -181t-50 -232.5zM487 531.5q0 50.5 11.5 82t31.5 56.5q46 57 116.5 57t112.5 -52t42 -103.5t-10.5 -85t-30.5 -59.5 q-45 -56 -119 -56t-114 55t-40 105.5zM1241 666q6 51 41 85.5t84 34.5t86 -36.5t35 -83.5h-246z" />
<glyph unicode="&#x178;" horiz-adv-x="1224" d="M-33 1200l453 -508v-471q0 -98 68 -170q68 -71 169 -71t167 72q69 74 69 169v471l391 424q47 51 47 113.5t-18.5 107.5t-50.5 79q-69 75 -166 75q-110 0 -207 -117l-234 -282l-327 403zM246 1761.5q0 -80.5 54 -138.5t138 -58t140.5 56t56.5 138q0 79 -57 137 q-55 58 -138 58q-78 0 -134 -54q-60 -58 -60 -138.5zM676 1758q0 -81 57.5 -137t136.5 -56t138 56q59 55 59 138q0 80 -57.5 137.5t-140.5 57.5t-138 -57.5t-55 -138.5z" />
<glyph unicode="&#x2c6;" horiz-adv-x="765" d="M-12 1331q0 -53 42 -98t105 -45q40 0 120 34q143 60 185 81q25 -10 66 -29t86 -37q112 -45 162 -45t94.5 43t44.5 96t-25.5 91t-68.5 55l-281 114q-47 21 -76 21q-30 0 -77 -21l-289 -116q-41 -16 -64.5 -53.5t-23.5 -90.5z" />
<glyph unicode="&#x2dc;" horiz-adv-x="741" d="M-4 1370q0 -53 33.5 -98t93.5 -45h555q59 0 100 41t41 99t-41 99t-98 41h-555q-55 0 -92 -42t-37 -95z" />
<glyph unicode="&#x2000;" horiz-adv-x="1001" />
<glyph unicode="&#x2001;" horiz-adv-x="2003" />
<glyph unicode="&#x2002;" horiz-adv-x="1001" />
<glyph unicode="&#x2003;" horiz-adv-x="2003" />
<glyph unicode="&#x2004;" horiz-adv-x="667" />
<glyph unicode="&#x2005;" horiz-adv-x="500" />
<glyph unicode="&#x2006;" horiz-adv-x="333" />
<glyph unicode="&#x2007;" horiz-adv-x="333" />
<glyph unicode="&#x2008;" horiz-adv-x="250" />
<glyph unicode="&#x2009;" horiz-adv-x="400" />
<glyph unicode="&#x200a;" horiz-adv-x="111" />
<glyph unicode="&#x2010;" horiz-adv-x="933" d="M49 606.5q0 -78.5 54.5 -130.5t132.5 -52h696l2 367h-698q-77 0 -132 -53t-55 -131.5z" />
<glyph unicode="&#x2011;" horiz-adv-x="933" d="M49 606.5q0 -78.5 54.5 -130.5t132.5 -52h696l2 367h-698q-77 0 -132 -53t-55 -131.5z" />
<glyph unicode="&#x2012;" horiz-adv-x="933" d="M49 606.5q0 -78.5 54.5 -130.5t132.5 -52h696l2 367h-698q-77 0 -132 -53t-55 -131.5z" />
<glyph unicode="&#x2013;" horiz-adv-x="1286" d="M133 734q0 -34 11.5 -66.5t31.5 -57.5q44 -59 115 -59h926v367h-926q-106 0 -147 -117q-11 -33 -11 -67z" />
<glyph unicode="&#x2014;" horiz-adv-x="1161" d="M63 516h1080l-2 418h-1078v-418z" />
<glyph unicode="&#x2018;" horiz-adv-x="591" d="M-66 844l388 -178l266 544q20 41 20 89.5t-17.5 88t-48.5 70.5q-64 66 -143 66q-154 0 -213 -129z" />
<glyph unicode="&#x2019;" horiz-adv-x="591" d="M-86 868q0 -49 17.5 -89t48.5 -71q65 -65 144 -65q148 0 212 131l252 551l-387 178l-267 -545q-20 -41 -20 -90z" />
<glyph unicode="&#x201a;" horiz-adv-x="530" d="M-61 -162q0 -88 58 -150.5t133.5 -62.5t131 35t82.5 92l254 551l-401 184l-240 -557q-18 -43 -18 -92z" />
<glyph unicode="&#x201c;" horiz-adv-x="1091" d="M-20 872l387 -178l233 516q20 47 21 93q0 94 -66 157q-68 64 -146 64t-132 -35t-78 -94zM551 872l387 -178l231 516q40 95 3 181q-34 80 -117 115q-41 18 -96.5 18t-109.5 -35t-79 -94z" />
<glyph unicode="&#x201d;" horiz-adv-x="1091" d="M-24 806q36 -81 117 -116q40 -18 96.5 -18t110.5 35.5t79 95.5l219 522l-387 178l-231 -516q-43 -92 -4 -181zM546 808q35 -82 119 -118q40 -18 96.5 -18t110.5 35.5t78 95.5l219 522l-387 178l-233 -516q-40 -95 -3 -179z" />
<glyph unicode="&#x201e;" horiz-adv-x="1021" d="M-61 -162q0 -88 58 -150.5t133.5 -62.5t131 35t82.5 92l272 582l-401 184l-258 -588q-18 -43 -18 -92zM508 -161q0 -44 16.5 -83t43.5 -68q62 -63 136 -63t129.5 36t81.5 91l271 582l-400 184l-258 -588q-20 -47 -20 -91z" />
<glyph unicode="&#x2022;" horiz-adv-x="718" d="M59 737q0 -121 87 -208t208 -87t208 87t87 208t-87 208t-208 87t-208 -87t-87 -208z" />
<glyph unicode="&#x2026;" horiz-adv-x="1636" d="M74 192q0 -46 17.5 -86t46.5 -70q64 -65 157 -65t157 65q64 66 64 157q0 88 -66 155q-64 66 -155 66t-155 -66q-66 -67 -66 -156zM664 192q0 -46 17 -86t47 -70q65 -65 157 -65q93 0 157 65q64 66 64 157q0 88 -66 155q-64 66 -155 66q-90 0 -156 -66q-65 -65 -65 -156z M1253 192q0 -46 17.5 -86t47.5 -70q65 -65 157 -65q93 0 157 65q64 66 64 157q0 89 -66 155t-155 66q-90 0 -156 -66t-66 -156z" />
<glyph unicode="&#x202f;" horiz-adv-x="400" />
<glyph unicode="&#x2039;" horiz-adv-x="651" d="M57 414l262 -291q65 -74 150 -74q74 0 125 53q53 55 53 111q0 93 -61 156l-170 178l172 172q63 63 63 143q0 68 -49 121q-50 53 -109 53q-97 0 -176 -84l-258 -270z" />
<glyph unicode="&#x203a;" horiz-adv-x="651" d="M47 225q0 -69 53.5 -122.5t111.5 -53.5q102 0 169 86l217 273l2 268l-221 289q-56 73 -148 73q-73 0 -126.5 -51.5t-53.5 -126.5q0 -77 62 -139l170 -178l-172 -174q-64 -64 -64 -144z" />
<glyph unicode="&#x205f;" horiz-adv-x="500" />
<glyph unicode="&#x20ac;" horiz-adv-x="1515" d="M57 520h146q46 -131 129 -239q117 -152 283.5 -223.5t355.5 -71.5q172 0 311 66q76 36 128 94.5t52 142.5q0 80 -64 138q-57 52 -143 52q-59 0 -129 -21q-130 -40 -203 -40q-145 0 -225 102h365q77 0 119 20q73 35 73 77t-55 72t-137 30h-436v47h436q82 0 137 29.5 t55 70.5t-56 70t-138 29h-346q76 76 233 108q27 6 53 6q139 0 306 -86l127 367q-370 121 -551 121h-23q-12 0 -22 -2q-218 -28 -393 -171q-173 -140 -244 -343h-142v-199h105v-47h-105z" />
<glyph unicode="&#x2122;" horiz-adv-x="1527" d="M45 1401q0 -84 135 -76q33 2 56 2v-545h159v545q23 0 55.5 -2t62.5 2q73 10 73 74q0 31 -21.5 52.5t-52.5 21.5h-393q-31 0 -52.5 -21.5t-21.5 -52.5zM541 801l159 -21l66 437l131 -449h170l131 449l66 -437l159 21l-100 598q-6 39 -38 61.5t-68 22.5q-80 0 -107 -82 l-129 -424l-127 424q-10 35 -36.5 58.5t-65.5 23.5t-72 -21.5t-39 -62.5z" />
<glyph unicode="&#xe000;" horiz-adv-x="1136" d="M0 0v1137h1137v-1137h-1137z" />
</font>
</defs>
</svg>
